<svg aria-hidden="true" style="position: absolute; width: 0; height: 0; overflow: hidden;" version="1.1" xmlns="http://www.w3.org/2000/svg" xmlns:xlink="http://www.w3.org/1999/xlink">
<defs>
<symbol id="icon-icons8-facebook" viewBox="0 0 32 32">
<path d="M15.007 1.981c-2.044 0.104-3.881 0.499-5.579 1.678-4.402 3.055-6.723 8.264-7.083 13.495-0.086 1.244-0.066 2.517 0.315 3.704 0.457 1.425 1.406 2.642 2.463 3.701 1.95 1.954 4.36 3.489 7.028 4.198 3.451 0.917 7.768 0.976 10.757-0.979 3.407-2.23 6.118-5.883 7.13-9.827 0.539-2.102-0.188-6.265-1.153-8.209-1.347-2.714-2.469-4.037-4.946-5.439-2.719-1.538-5.85-2.107-8.931-2.321z"></path>
<path fill="#d6e5e5" style="fill: var(--color2, #d6e5e5)" d="M18.375 29.073c-0.214-0.613-0.098-1.528-0.117-2.183-0.023-0.788-0.035-1.577-0.036-2.365-0.002-0.967 0.012-1.933 0.041-2.899 0.015-0.483 0.043-0.965 0.057-1.448 0.011-0.373-0.031-0.519 0.379-0.535 0.845-0.034 1.696-0.047 2.546-0.051 0.042 0 0.087-0.001 0.12-0.026 0.039-0.029 0.052-0.080 0.061-0.127 0.069-0.376 0.043-0.762 0.047-1.144 0.008-0.829 0.163-1.657 0.455-2.432-0.949-0.071-1.904-0.070-2.853 0.003-0.213 0.016-0.465 0.083-0.676 0.065-0.271-0.024-0.258-0.005-0.318-0.291-0.095-0.449-0.086-0.944-0.103-1.401-0.021-0.563 0.047-1.152 0.352-1.626 0.285-0.443 0.753-0.743 1.249-0.921 0.737-0.265 1.565-0.371 2.34-0.361 0.020-0.575 0.044-1.149 0.073-1.723 0.019-0.389 0.234-1.098-0.142-1.339-0.188-0.121-0.485-0.168-0.701-0.22-0.498-0.119-1.012-0.166-1.523-0.157-1.017 0.019-2.026 0.257-2.973 0.624-0.659 0.255-1.321 0.591-1.743 1.159-0.305 0.411-0.459 0.912-0.579 1.409-0.194 0.807-0.309 1.633-0.343 2.463-0.017 0.415-0.015 0.83 0.008 1.245 0.015 0.267 0.186 0.823-0.067 1.025-0.187 0.15-0.783 0.109-1.020 0.131-0.773 0.075-1.551 0.117-2.328 0.125 0.151 1.234 0.301 2.467 0.452 3.701 0.614 0.032 1.229 0.055 1.843 0.071 0.315 0.008 0.813-0.103 1.014 0.191 0.282 0.411 0.027 1.203 0.018 1.663-0.015 0.806-0.025 1.611-0.019 2.417 0.012 1.584 0.037 3.483 0.239 5.055z"></path>
<path fill="#010101" style="fill: var(--color3, #010101)" d="M14.129 29.503c-0.165 0-0.309-0.123-0.33-0.291-0.199-1.549-0.229-3.367-0.241-5.095-0.007-0.809 0.003-1.618 0.018-2.427 0.003-0.146 0.027-0.322 0.055-0.51 0.047-0.326 0.112-0.773-0.014-0.959-0.053-0.075-0.329-0.061-0.493-0.053-0.090 0.005-0.175 0.007-0.255 0.007-0.617-0.015-1.235-0.039-1.852-0.071-0.161-0.009-0.293-0.131-0.313-0.292l-0.452-3.701c-0.012-0.095 0.017-0.189 0.080-0.261 0.063-0.071 0.153-0.113 0.247-0.113 0.763-0.007 1.536-0.048 2.298-0.123 0.069-0.007 0.167-0.009 0.276-0.011 0.147-0.003 0.491-0.009 0.579-0.056 0.028-0.059-0.017-0.355-0.037-0.482-0.015-0.097-0.027-0.187-0.031-0.258-0.023-0.424-0.026-0.853-0.009-1.277 0.036-0.848 0.154-1.699 0.352-2.526 0.119-0.494 0.287-1.061 0.635-1.531 0.497-0.669 1.271-1.031 1.89-1.271 1.060-0.411 2.098-0.628 3.087-0.647 0.561-0.008 1.103 0.046 1.607 0.167l0.12 0.027c0.213 0.047 0.479 0.105 0.683 0.236 0.471 0.303 0.383 0.943 0.325 1.366-0.014 0.099-0.027 0.193-0.031 0.271-0.027 0.572-0.051 1.145-0.071 1.717-0.007 0.18-0.154 0.321-0.333 0.321-0.033 0.001-0.067-0.001-0.1-0.001-0.772 0-1.505 0.118-2.126 0.342-0.341 0.123-0.806 0.359-1.082 0.787-0.225 0.349-0.322 0.818-0.299 1.432l0.009 0.293c0.009 0.357 0.019 0.725 0.088 1.051 0.002 0.009 0.004 0.018 0.005 0.026 0.129 0.007 0.253-0.011 0.373-0.029 0.091-0.014 0.181-0.027 0.264-0.034 0.966-0.073 1.943-0.075 2.904-0.003 0.104 0.009 0.199 0.065 0.256 0.153s0.068 0.199 0.031 0.297c-0.28 0.743-0.427 1.522-0.434 2.317l0.001 0.272c0.003 0.301 0.006 0.613-0.052 0.929-0.013 0.065-0.044 0.226-0.189 0.334-0.126 0.093-0.262 0.093-0.319 0.093-0.981 0.005-1.786 0.021-2.533 0.051-0.022 0.001-0.040 0.002-0.055 0.003-0.001 0.032-0.002 0.069-0.003 0.101l-0.003 0.109c-0.007 0.26-0.018 0.52-0.030 0.78-0.010 0.223-0.019 0.446-0.026 0.669-0.030 0.951-0.043 1.923-0.042 2.888 0.001 0.786 0.014 1.571 0.037 2.355 0.005 0.191-0.001 0.404-0.007 0.625-0.014 0.505-0.029 1.076 0.104 1.458 0.061 0.174-0.031 0.364-0.205 0.425-0.174 0.062-0.365-0.031-0.425-0.205-0.174-0.497-0.157-1.134-0.141-1.696 0.005-0.208 0.011-0.407 0.006-0.588-0.023-0.791-0.035-1.582-0.037-2.373-0.002-0.972 0.013-1.951 0.042-2.91 0.007-0.226 0.017-0.452 0.027-0.678 0.011-0.256 0.023-0.513 0.029-0.769l0.002-0.097c0.005-0.292 0.011-0.735 0.697-0.762 0.722-0.029 1.497-0.045 2.431-0.050 0.028-0.223 0.025-0.448 0.023-0.683l-0.001-0.285c0.007-0.724 0.119-1.436 0.332-2.124-0.787-0.040-1.582-0.029-2.371 0.030-0.069 0.006-0.141 0.017-0.215 0.028-0.159 0.025-0.34 0.051-0.516 0.036-0.437-0.037-0.533-0.171-0.608-0.529-0.087-0.41-0.097-0.81-0.107-1.197l-0.009-0.285c-0.029-0.757 0.104-1.351 0.405-1.819 0.377-0.585 0.978-0.897 1.416-1.054 0.632-0.228 1.363-0.357 2.131-0.377 0.017-0.469 0.038-0.939 0.061-1.408 0.005-0.096 0.019-0.209 0.036-0.329 0.029-0.208 0.088-0.641-0.025-0.713-0.103-0.067-0.304-0.111-0.466-0.146l-0.131-0.030c-0.45-0.108-0.931-0.157-1.44-0.149-0.909 0.017-1.871 0.219-2.858 0.601-0.535 0.208-1.201 0.515-1.596 1.047-0.276 0.372-0.414 0.839-0.522 1.289-0.188 0.785-0.301 1.593-0.334 2.399-0.017 0.403-0.015 0.811 0.007 1.213 0.003 0.053 0.014 0.121 0.025 0.194 0.050 0.332 0.127 0.834-0.217 1.11-0.21 0.167-0.55 0.187-0.973 0.195-0.089 0.002-0.167 0.003-0.223 0.009-0.658 0.064-1.323 0.104-1.985 0.12l0.373 3.055c0.517 0.025 1.036 0.043 1.554 0.056 0.064 0.003 0.131-0.002 0.205-0.006 0.323-0.018 0.815-0.042 1.077 0.342 0.273 0.399 0.19 0.971 0.124 1.431-0.023 0.157-0.045 0.305-0.047 0.427-0.015 0.803-0.025 1.605-0.018 2.409 0.013 1.708 0.041 3.502 0.236 5.015 0.023 0.182-0.105 0.349-0.289 0.373-0.015 0.001-0.029 0.002-0.043 0.002z"></path>
<path fill="#010101" style="fill: var(--color3, #010101)" d="M16.737 29.749c-1.499 0-3.085-0.209-4.683-0.633-2.59-0.689-5.077-2.173-7.194-4.295-1.327-1.331-2.138-2.553-2.553-3.849-0.435-1.356-0.405-2.765-0.331-3.841 0.403-5.84 3.043-10.861 7.242-13.774 1.559-1.082 3.339-1.62 5.772-1.744 0.015-0.001 0.029-0.001 0.044 0.001 3.811 0.265 6.699 1.017 9.086 2.367 2.47 1.397 3.66 2.705 5.095 5.597 1.001 2.017 1.75 6.244 1.179 8.466-1.019 3.971-3.743 7.727-7.286 10.045-1.677 1.098-3.909 1.661-6.371 1.661zM15.004 2.352c-2.275 0.119-3.931 0.616-5.365 1.611-4.013 2.785-6.538 7.603-6.925 13.217-0.104 1.501-0.012 2.601 0.297 3.565 0.378 1.179 1.132 2.309 2.372 3.552 2.024 2.029 4.397 3.447 6.861 4.103 4.022 1.069 7.933 0.721 10.459-0.931 3.392-2.221 5.999-5.813 6.974-9.61 0.518-2.017-0.187-6.059-1.126-7.954-1.357-2.735-2.478-3.97-4.797-5.281-2.283-1.292-5.064-2.014-8.751-2.271z"></path>
</symbol>
<symbol id="icon-icons8" viewBox="0 0 32 32">
<path d="M7.822 2.375c2.137-0.102 5.395-0.473 8.835-0.275 1.947 0.113 7.068-0.229 7.068-0.229 3.267 0 5.839 2.599 6.247 5.84 0.139 1.107 0.53 3.442 0.401 4.477-0.275 2.209 0.151 5.535 0.057 6.445-0.427 4.141-0.22 4.315-0.057 5.741 0.37 3.247-2.653 6.077-5.916 5.916-2.842-0.141-6.416-0.236-9.27 0.017-2.149 0.191-5.834-0.105-7.088-0.017-3.259 0.228-5.894-1.758-5.916-5.916-0.006-1.114-0.404-2.467-0.364-4.44 0.049-2.397 0.342-4.523 0.364-5.601 0.033-1.579 0.005-4.738 0-6.317-0.011-3.267 1.196-5.429 5.639-5.641z"></path>
<path fill="#010101" style="fill: var(--color3, #010101)" d="M13.324 30.707c-0.891 0-1.841-0.029-2.724-0.057-1.061-0.033-1.977-0.062-2.477-0.027-1.745 0.124-3.318-0.377-4.428-1.407-1.195-1.109-1.833-2.783-1.845-4.84-0.002-0.432-0.068-0.91-0.143-1.463-0.115-0.839-0.245-1.791-0.221-2.986 0.029-1.448 0.147-2.792 0.241-3.873 0.061-0.701 0.114-1.307 0.123-1.728 0.026-1.249 0.014-3.508 0.005-5.157l-0.005-1.152c-0.013-3.936 1.823-5.779 5.957-5.976v0c0.526-0.025 1.12-0.067 1.769-0.111 2.001-0.14 4.493-0.313 7.101-0.163 1.903 0.109 6.975-0.225 7.027-0.229 0 0 0.001 0 0.001 0 3.332 0 6.159 2.636 6.599 6.131 0.027 0.21 0.062 0.464 0.101 0.745 0.173 1.238 0.409 2.933 0.3 3.814-0.167 1.348-0.065 3.182 0.010 4.521 0.048 0.865 0.086 1.548 0.049 1.917-0.357 3.459-0.269 4.099-0.135 5.069 0.025 0.183 0.052 0.377 0.077 0.601 0.175 1.539-0.374 3.113-1.507 4.322-1.235 1.317-3.014 2.049-4.757 1.965-3.903-0.194-6.921-0.188-9.223 0.017-0.559 0.050-1.209 0.067-1.894 0.067zM8.73 29.94c0.515 0 1.17 0.021 1.891 0.043 1.543 0.048 3.293 0.103 4.537-0.007 2.334-0.208 5.381-0.214 9.316-0.019 1.553 0.082 3.134-0.579 4.237-1.755 1.014-1.081 1.487-2.427 1.332-3.791-0.025-0.219-0.051-0.407-0.075-0.585-0.14-1.017-0.233-1.689 0.132-5.227 0.033-0.316-0.006-1.009-0.051-1.811-0.081-1.441-0.181-3.233-0.005-4.641 0.099-0.794-0.14-2.506-0.299-3.639-0.040-0.285-0.076-0.542-0.103-0.755-0.399-3.163-2.942-5.549-5.917-5.549-0.188 0.013-5.142 0.342-7.087 0.228-2.57-0.149-5.035 0.024-7.017 0.163-0.653 0.045-1.253 0.087-1.783 0.113v0c-3.792 0.181-5.333 1.719-5.321 5.307l0.005 1.151c0.009 1.653 0.021 3.917-0.005 5.175-0.009 0.443-0.063 1.059-0.125 1.773-0.093 1.070-0.21 2.403-0.239 3.828-0.023 1.143 0.103 2.067 0.215 2.882 0.079 0.576 0.147 1.074 0.149 1.549 0.010 1.868 0.574 3.374 1.631 4.355 0.987 0.916 2.347 1.343 3.929 1.231 0.176-0.013 0.397-0.017 0.653-0.017z"></path>
<path fill="#d6e5e5" style="fill: var(--color2, #d6e5e5)" d="M10.9 9.168c-0.157 1.815-1.292 1.889-2.070 1.85s-2.227-0.574-2.128-2.005c0.098-1.431 2.219-2.027 2.219-2.027s2.127 0.477 1.979 2.181z"></path>
<path fill="#010101" style="fill: var(--color3, #010101)" d="M10.539 7.417c-0.417-0.396-0.9-0.645-1.474-0.743-0.713-0.123-1.079 0.183-1.601 0.624-0.973 0.821-1.475 2.089-0.657 3.231 0.819 1.143 3.042 1.195 3.949 0.171 0.465-0.524 0.58-1.171 0.523-1.855-0.069-0.816-0.432-1.284-1.023-1.808-0.32-0.283-0.793 0.186-0.471 0.471 0.437 0.387 0.707 0.635 0.811 1.255 0.095 0.557 0.013 1.133-0.391 1.554-0.427 0.446-1.143 0.394-1.727 0.364-0.661-0.033-1.135-0.373-1.342-1.002-0.281-0.857 0.309-1.434 0.899-1.943 0.389-0.336 0.753-0.521 1.284-0.332 0.209 0.074 0.572 0.315 0.749 0.483 0.311 0.296 0.783-0.175 0.471-0.471v0z"></path>
<path fill="#d6e5e5" style="fill: var(--color2, #d6e5e5)" d="M6.942 13.664l0.568 13.016 3.746 0.065-0.385-12.939z"></path>
<path fill="#010101" style="fill: var(--color3, #010101)" d="M6.609 13.664c0.48 4.297 0.521 8.561 0.521 12.874 0 0.429 0.667 0.43 0.667 0 0-4.313-0.041-8.577-0.521-12.874-0.047-0.421-0.714-0.426-0.667 0v0z"></path>
<path fill="#010101" style="fill: var(--color3, #010101)" d="M11.192 13.895c0.010-0.029 0.019-0.059 0.029-0.087 0.075-0.221-0.119-0.405-0.321-0.422-1.315-0.113-2.637-0.102-3.958-0.102-0.429 0-0.43 0.667 0 0.667 1.321 0 2.643-0.011 3.958 0.102-0.107-0.141-0.214-0.281-0.321-0.422-0.010 0.029-0.019 0.059-0.029 0.087-0.137 0.408 0.506 0.583 0.643 0.177v0z"></path>
<path fill="#010101" style="fill: var(--color3, #010101)" d="M10.687 14.081c-0.254-0.053-0.099 2.517-0.093 2.703 0.039 1.163 0.013 2.334 0.095 3.496 0.144 2.046 0.235 4.159 0.226 6.211-0.002 0.429 0.665 0.429 0.667 0 0.019-4.235-0.364-8.486-0.434-12.724-0.002-0.139-0.101-0.292-0.245-0.321-0.013-0.003-0.026-0.005-0.039-0.008-0.419-0.086-0.598 0.557-0.177 0.643v0z"></path>
<path fill="#010101" style="fill: var(--color3, #010101)" d="M7.51 26.347c-0.011 0-0.021 0-0.031 0 0 0.222 0 0.445 0 0.667 0.834 0 1.665-0.009 2.495 0.043 0.413 0.025 0.975 0.157 1.37 0.011-0.125-0.163-0.251-0.327-0.377-0.49-0.018 0.025-0.036 0.051-0.054 0.077-0.247 0.351 0.33 0.685 0.575 0.337 0.018-0.025 0.036-0.051 0.054-0.077 0.163-0.231-0.109-0.589-0.377-0.489-0.401 0.149-1.036-0.059-1.456-0.078-0.741-0.034-1.491 0.001-2.233 0.001-0.429 0-0.43 0.667 0 0.667 0.011 0 0.021 0 0.031 0 0.431-0.001 0.431-0.667 0.001-0.667v0z"></path>
<path fill="#d6e5e5" style="fill: var(--color2, #d6e5e5)" d="M13.237 13.617l0.379 9.253-0.040 3.995 3.282 0.206c0 0-0.023-2.616 0-2.853s-0.491-4.147-0.127-4.499c0.364-0.353 1.686-2.033 1.879-1.961s1.988-0.517 1.988-0.517 1.161 0.421 1.203 0.456 0.865 1.203 0.865 1.203l0.227 2.172 0.079 5.017 0.489 0.584 2.402 0.087 0.201-4.953-0.263-2.752-0.976-4.017-2.524-1.467-3.715 0.615-1.427 1.001-0.437-1.61-3.485 0.041z"></path>
<path fill="#010101" style="fill: var(--color3, #010101)" d="M12.916 13.705c0.461 1.887 0.235 4.177 0.272 6.113 0.045 2.315-0.124 4.75 0.055 7.047 0.018 0.233 0.275 0.44 0.501 0.288 0.045-0.030 0.090-0.061 0.135-0.091 0.354-0.238 0.021-0.816-0.337-0.575-0.045 0.030-0.090 0.061-0.135 0.091 0.167 0.096 0.335 0.192 0.501 0.288-0.192-2.469-0.045-5.102-0.055-7.591-0.007-1.826 0.138-3.969-0.296-5.745-0.101-0.417-0.744-0.241-0.642 0.177v0z"></path>
<path fill="#010101" style="fill: var(--color3, #010101)" d="M13.096 13.097c-0.009 0.012-0.019 0.025-0.029 0.037-0.105 0.134-0.149 0.342 0 0.471 0.285 0.248 0.73 0.169 1.084 0.192 0.826 0.054 1.657-0.013 2.481 0.099-0.077-0.137-0.155-0.273-0.233-0.41-0.125 0.668 0.017 1.253 0.435 1.785 0.265 0.337 0.733-0.137 0.471-0.471-0.254-0.324-0.339-0.737-0.263-1.137 0.030-0.158-0.043-0.384-0.233-0.41-0.639-0.087-1.283-0.113-1.929-0.113-0.297 0-0.587-0.031-0.88-0.044-0.073-0.003-0.441 0.055-0.463 0.036 0 0.157 0 0.314 0 0.471 0.009-0.012 0.019-0.025 0.029-0.037 0.261-0.334-0.208-0.809-0.471-0.471v0z"></path>
<path fill="#010101" style="fill: var(--color3, #010101)" d="M17.069 15.226c-0.001 0.010-0.001 0.020-0.001 0.030-0.013 0.353 0.445 0.424 0.621 0.168 0.875-1.271 3.546-1.616 4.885-1.337 2.279 0.475 2.407 2.319 2.789 4.285 0.289 1.489 0.351 3.051 0.32 4.568-0.025 1.206-0.433 2.725-0.142 3.907 0.085 0.343 0.535 0.289 0.643 0 0.004-0.011 0.008-0.021 0.011-0.031 0.15-0.403-0.494-0.576-0.643-0.177-0.004 0.011-0.008 0.021-0.011 0.031 0.214 0 0.429 0 0.643 0-0.241-0.978 0.141-2.176 0.164-3.185 0.025-1.069-0.013-2.143-0.069-3.209-0.090-1.698-0.297-4.175-1.301-5.595-0.78-1.104-2.365-1.514-3.685-1.432-1.245 0.077-3.429 0.749-4.179 1.839 0.207 0.056 0.414 0.112 0.621 0.168 0.001-0.010 0.001-0.020 0.001-0.030 0.015-0.428-0.651-0.427-0.667 0.001v0z"></path>
<path fill="#010101" style="fill: var(--color3, #010101)" d="M13.589 26.629c-0.027 0.017-0.053 0.034-0.081 0.051-0.227 0.144-0.214 0.547 0.079 0.609 1.037 0.218 2.322 0.191 3.37-0.017 0.145-0.029 0.241-0.183 0.245-0.321 0.049-2.045-0.627-4.521-0.178-6.517 0.277-1.231 1.249-1.983 2.325-2.507 2.004-0.976 3.107 0.617 3.209 2.489 0.060 1.089 0.009 2.193 0.047 3.283 0.029 0.828-0.151 1.845 0.057 2.646 0.337 1.3 1.918 0.879 2.897 0.681 0.42-0.085 0.243-0.727-0.177-0.643-0.776 0.157-1.767 0.411-2.076-0.427-0.159-0.431 0.003-1.315-0.016-1.804-0.057-1.459 0.061-2.968-0.115-4.415-0.23-1.899-1.733-3.307-3.689-2.629-0.851 0.295-1.637 0.941-2.3 1.533-0.951 0.849-0.881 1.649-0.881 2.931-0.001 1.307 0.213 2.593 0.247 3.894 0.007 0.257 0.091 0.907-0.008 1.171-0.049 0.13 0.479 0.149-0.423 0.090-0.764-0.049-1.607 0.078-2.356-0.079 0.027 0.203 0.053 0.406 0.079 0.609 0.027-0.017 0.053-0.034 0.081-0.051 0.362-0.23 0.028-0.807-0.336-0.577v0z"></path>
</symbol>
<symbol id="icon-linkedin" viewBox="0 0 32 32">
<path d="M6.837 0.007c-0.282-0.035-0.529 0.071-0.67 0.247-1.516-0.106-2.927 0.987-3.385 2.68-0.599 2.186 1.375 4.479 3.597 4.373 1.799-0.106 3.315-1.622 3.738-3.315 0.458-2.186-1.234-3.809-3.28-3.985z"></path>
<path d="M8.953 10.939c0-0.282-0.176-0.423-0.388-0.458-0.071-0.353-0.353-0.635-0.776-0.6-0.599 0.035-1.199 0.035-1.798 0.071-0.67 0.035-1.516-0.035-2.151 0.247-0.212 0.071-0.317 0.247-0.388 0.388-0.071 0.071-0.106 0.141-0.141 0.247-0.846 4.302-0.811 8.64-0.776 13.013 0 1.552-0.741 5.607 0.67 6.771 0.106 0.106 0.247 0.141 0.388 0.141 0.035 0.071 0.106 0.176 0.212 0.212 0.67 0.458 1.798 0.247 2.539 0.141 0.423-0.071 0.987-0.106 1.411-0.353 0.353 0.141 0.811 0.035 0.917-0.388 0.564-2.821 0.071-5.96 0.035-8.816-0.106-3.597 0.141-7.088 0.247-10.615z"></path>
<path d="M29.618 22.082c0.035-2.927-0.106-5.854-1.446-8.499-2.715-5.395-11.002-4.196-15.763-3.597-0.458 0.071-0.705 0.458-0.67 0.811 0 0 0 0 0 0.035-0.952 6.453-0.952 13.295-0.846 19.819v0c0 0.529 0.458 0.811 0.882 0.811 0.106 0.071 0.247 0.141 0.423 0.176 1.481 0.176 2.927 0.176 4.408 0.353 0.458 0.071 0.776-0.317 0.846-0.705 0.317-0.106 0.599-0.388 0.494-0.776-0.67-2.504-0.67-4.972-0.494-7.547 0.141-1.869 0.741-3.985 0.529-5.854 1.234-0.282 2.292-1.199 3.315 0.141 1.058 1.375 1.305 3.456 1.516 5.113 0.212 1.622 0.282 3.28 0.317 4.937 0.035 0.987-0.282 2.398 0.317 3.244 0.141 0.212 0.353 0.282 0.529 0.317 0.035 0 0.071 0.035 0.106 0.035 1.375 0.317 3.068 0.635 4.479 0.388 0.423-0.071 0.635-0.458 0.635-0.846 0.705-2.504 0.388-5.819 0.423-8.358zM24.963 29.241c0.212 0.106 0.423 0.141 0.635 0.071 0.212 0.035 0.423 0 0.635-0.106 0.035 0.071 0.071 0.141 0.141 0.247-0.494 0-0.952 0.035-1.446 0.035 0.035-0.106 0.035-0.176 0.035-0.247z"></path>
</symbol>
<symbol id="icon-linkedin-social-media-svgrepo-com" viewBox="0 0 32 32">
<path  fill="#ffe100" style="fill: var(--color4, #ffe100)" d="M29.867 16.907c0-3.947-1.867-7.040-5.813-7.040h-1.12c-2.133 0-3.68 1.013-4.8 2.667-0.373 0.373-0.533 0.533-0.533 0.533v-2.133c0-0.213-0.32-0.533-0.533-0.533h-5.333c-0.213 0-0.533 0.213-0.533 0.48v19.893c0 0.213 0.32 0.427 0.533 0.427h5.867c0.213 0 0.533-0.213 0.533-0.427v-11.52c0-1.973 1.493-3.627 3.467-3.68 1.013 0 1.92 0.373 2.613 1.067 0.64 0.64 0.907 1.547 0.907 2.56v11.467c0 0.213 0.32 0.533 0.533 0.533h3.733c0.213 0 0.533-0.32 0.533-0.533v-13.76h-0.053z"></path>
<path fill="#ffa800" style="fill: var(--color5, #ffa800)" d="M24.587 9.867h-0.533c3.947 0 5.813 3.093 5.813 7.040v0 13.76c0 0.213-0.32 0.533-0.533 0.533h1.6c0.213 0 0.533-0.32 0.533-0.533v-13.76c0-3.947-2.933-7.040-6.88-7.040z"></path>
<path fill="#ffe100" style="fill: var(--color4, #ffe100)" d="M6.667 31.2h-3.2c-0.427 0-0.8-0.48-0.8-1.067v-18.667c0-0.587 0.32-1.067 0.747-1.067h3.253c0.427 0 0.8 0.48 0.8 1.067v18.72c0 0.533-0.373 1.013-0.8 1.013z"></path>
<path fill="#fff" style="fill: var(--color6, #fff)" d="M2.667 30.133v-18.667c0-0.587 0.32-1.067 0.747-1.067h-1.333c-0.587 0-1.013 0.48-1.013 1.067v18.667c0 0.587 0.48 1.067 1.067 1.067h1.28c-0.373-0.053-0.747-0.533-0.747-1.067z"></path>
<path fill="#fff" style="fill: var(--color6, #fff)" d="M7.467 11.467v0 0 0z"></path>
<path fill="#ffe100" style="fill: var(--color4, #ffe100)" d="M5.067 0.8c1.6 0 2.933 1.707 2.933 3.733 0 2.133-1.387 3.787-2.933 3.733-1.547 0.053-2.933-1.6-2.933-3.733-0-2.080 1.333-3.733 2.933-3.733z"></path>
<path fill="#fff" style="fill: var(--color6, #fff)" d="M2.133 4.533c0-1.92 1.12-3.467 2.613-3.733-0.16 0-0.32 0-0.427 0-2.080 0-3.787 1.653-3.787 3.733 0 2.133 1.76 3.787 3.733 3.733 0.16 0 0.32 0 0.427 0-1.387-0.213-2.56-1.76-2.56-3.733z"></path>
<path fill="#000" style="fill: var(--color7, #000)" d="M4.373 8.8c-0.053 0-0.107 0-0.107 0-1.067 0.053-2.187-0.427-2.987-1.227s-1.28-1.867-1.28-3.040c0-1.12 0.427-2.187 1.28-3.040 0.8-0.8 1.867-1.227 3.040-1.227v0 0c1.12 0 2.187 0.427 2.987 1.28 0.8 0.8 1.28 1.867 1.227 2.987 0 1.173-0.48 2.24-1.28 3.040s-1.813 1.227-2.88 1.227zM4.267 7.733c0.853 0.053 1.653-0.32 2.24-0.907 0.64-0.587 0.96-1.44 0.96-2.293s-0.32-1.653-0.96-2.293c-0.587-0.587-1.387-0.907-2.187-0.907v0c-0.907 0-1.707 0.32-2.293 0.907-0.64 0.64-0.96 1.44-0.96 2.293s0.32 1.707 0.96 2.293c0.587 0.587 1.44 0.907 2.24 0.907z"></path>
<path fill="#000" style="fill: var(--color7, #000)" d="M6.4 31.733h-4.267c-0.853 0-1.6-0.747-1.6-1.6v-12.8c0-0.32 0.213-0.533 0.533-0.533s0.533 0.213 0.533 0.533v12.8c0 0.267 0.267 0.533 0.533 0.533h4.267c0.267 0 0.533-0.213 0.533-0.48v-18.72c0-0.267-0.267-0.533-0.533-0.533h-4.32c-0.267 0-0.48 0.267-0.48 0.533v1.6c0 0.32-0.213 0.533-0.533 0.533s-0.533-0.213-0.533-0.533v-1.6c0-0.907 0.693-1.6 1.547-1.6h4.32c0.853 0 1.6 0.747 1.6 1.6v18.72c-0 0.8-0.747 1.547-1.6 1.547z"></path>
<path fill="#000" style="fill: var(--color7, #000)" d="M1.6 15.2c0-0.32-0.213-0.533-0.533-0.533s-0.533 0.213-0.533 0.533 0.213 0.533 0.533 0.533 0.533-0.213 0.533-0.533z"></path>
<path fill="#000" style="fill: var(--color7, #000)" d="M30.933 31.733h-5.333c-0.533 0-1.067-0.533-1.067-1.067v-11.467c0-0.96-0.213-1.707-0.747-2.187-0.587-0.587-1.387-0.907-2.24-0.907-1.653 0-2.933 1.387-2.933 3.147v11.52c0 0.587-0.587 0.96-1.067 0.96h-5.867c-0.48 0-1.067-0.373-1.067-0.96v-19.893c0-0.587 0.587-1.013 1.067-1.013h5.333c0.533 0 1.067 0.533 1.067 1.067v0.747c1.28-1.44 3.253-2.347 5.333-2.347h1.12c4.213-0 7.467 3.307 7.467 7.573v13.76c0 0.533-0.533 1.067-1.067 1.067zM25.653 30.667h5.227l0.053-0.053v-13.707c0-3.627-2.773-6.507-6.347-6.507h-1.12c-1.973 0-3.84 0.96-4.907 2.453l-1.493 1.493v-3.36l-0.053-0.053h-5.28v19.733h5.867v-11.413c0-2.347 1.76-4.16 4-4.213 1.12 0 2.187 0.427 2.987 1.227 0.693 0.693 1.013 1.653 1.013 2.933l0.053 11.467c-0.053-0.053 0 0 0 0z"></path>
</symbol>
<symbol id="icon-linkedin-svgrepo-com-2" viewBox="0 0 32 32">
<path d="M31.499 5.812c0.277 0 0.501-0.224 0.501-0.501v-2.672c0-1.455-1.184-2.639-2.639-2.639h-26.722c-1.455 0-2.639 1.184-2.639 2.639v26.722c0 1.455 1.184 2.639 2.639 2.639h26.722c1.455 0 2.639-1.184 2.639-2.639v-21.912c0-0.277-0.224-0.501-0.501-0.501s-0.501 0.224-0.501 0.501v21.912c0 0.902-0.734 1.637-1.637 1.637h-26.722c-0.902 0-1.637-0.734-1.637-1.637v-26.722c0-0.902 0.734-1.637 1.637-1.637h26.722c0.903 0 1.637 0.734 1.637 1.637v2.672c0 0.277 0.224 0.501 0.501 0.501z"></path>
<path d="M9.587 14.931c0.277 0 0.501-0.224 0.501-0.501v-2.171c0-0.277-0.224-0.501-0.501-0.501h-4.276c-0.277 0-0.501 0.224-0.501 0.501v14.43c0 0.277 0.224 0.501 0.501 0.501h4.276c0.277 0 0.501-0.224 0.501-0.501v-10.054c0-0.277-0.224-0.501-0.501-0.501s-0.501 0.224-0.501 0.501v9.553h-3.273v-13.428h3.274v1.67c0 0.277 0.224 0.501 0.501 0.501z"></path>
<path d="M25.503 13.13c-1.020-0.872-2.341-1.373-3.624-1.373-2.118 0-3.46 0.704-4.309 1.572v-1.071c0-0.277-0.224-0.501-0.501-0.501h-4.276c-0.277 0-0.501 0.224-0.501 0.501v14.43c0 0.277 0.224 0.501 0.501 0.501h4.276c0.277 0 0.501-0.224 0.501-0.501v-6.948c0-1.341 1.127-2.171 2.171-2.171 1.258 0 2.171 0.913 2.171 2.171v6.948c0 0.277 0.224 0.501 0.501 0.501h4.276c0.277 0 0.501-0.224 0.501-0.501v-10.154c0-1.265-0.599-2.474-1.687-3.404zM26.188 26.188h-3.273v-6.447c0-1.809-1.364-3.173-3.173-3.173-1.526 0-3.173 1.213-3.173 3.173v6.447h-3.274v-13.428h3.274v2.171c0 0.229 0.161 0.433 0.383 0.487 0.229 0.056 0.472-0.061 0.572-0.274 0.742-1.582 2.208-2.384 4.356-2.384 2.034 0 4.309 1.614 4.309 3.775v9.653z"></path>
<path d="M7.449 4.81c-1.455 0-2.639 1.184-2.639 2.639s1.184 2.639 2.639 2.639 2.639-1.184 2.639-2.639-1.184-2.639-2.639-2.639zM7.449 9.086c-0.902 0-1.637-0.734-1.637-1.637s0.734-1.637 1.637-1.637 1.637 0.734 1.637 1.637-0.734 1.637-1.637 1.637z"></path>
</symbol>
<symbol id="icon-linkedin-svgrepo-com" viewBox="0 0 32 32">
<path  fill="#3cafe6" style="fill: var(--color8, #3cafe6)" d="M29.361 31.499h-26.722c-1.181 0-2.138-0.957-2.138-2.138v-26.722c0-1.181 0.957-2.138 2.138-2.138h26.722c1.181 0 2.138 0.957 2.138 2.138v26.722c0 1.181-0.957 2.138-2.138 2.138z"></path>
<path fill="#1c9ad6" style="fill: var(--color9, #1c9ad6)" d="M2.639 28.292v-27.791c-1.181 0-2.138 0.957-2.138 2.138v26.722c0 1.181 0.957 2.138 2.138 2.138h26.722c1.181 0 2.138-0.957 2.138-2.138h-27.791c-0.59 0-1.069-0.479-1.069-1.069z"></path>
<path fill="#fff" style="fill: var(--color6, #fff)" d="M5.311 12.259h4.276v14.43h-4.276v-14.43z"></path>
<path fill="#e5e5e5" style="fill: var(--color10, #e5e5e5)" d="M5.311 12.259h1.603v14.43h-1.603v-14.43z"></path>
<path fill="#fff" style="fill: var(--color6, #fff)" d="M21.879 12.259c-1.069 0-3.63 0.156-4.81 2.672 0-0.534 0-2.672 0-2.672h-4.276v14.43h4.276v-6.948c0-1.603 1.353-2.672 2.672-2.672 1.476 0 2.672 1.069 2.672 2.672v6.948h4.276v-10.155c-0-2.361-2.427-4.276-4.81-4.276z"></path>
<path fill="#e5e5e5" style="fill: var(--color10, #e5e5e5)" d="M12.793 12.259h1.603v14.43h-1.603v-14.43z"></path>
<path fill="#e5e5e5" style="fill: var(--color10, #e5e5e5)" d="M24.017 19.741c0-1.603-1.196-2.672-2.672-2.672-0.26 0-0.52 0.042-0.772 0.121 1.069 0.321 1.841 1.264 1.841 2.552v6.948h1.603v-6.948z"></path>
<path fill="#fff" style="fill: var(--color6, #fff)" d="M9.587 7.449c0 1.181-0.957 2.138-2.138 2.138s-2.138-0.957-2.138-2.138c0-1.181 0.957-2.138 2.138-2.138s2.138 0.957 2.138 2.138z"></path>
<path fill="#e5e5e5" style="fill: var(--color10, #e5e5e5)" d="M8.518 8.518c-1.181 0-2.138-0.957-2.138-2.138 0-0.314 0.068-0.611 0.189-0.88-0.742 0.335-1.258 1.081-1.258 1.948 0 1.181 0.957 2.138 2.138 2.138 0.867 0 1.613-0.517 1.948-1.258-0.268 0.121-0.566 0.189-0.879 0.189z"></path>
<path fill="#000" style="fill: var(--color7, #000)" d="M31.499 5.812c0.277 0 0.501-0.224 0.501-0.501v-2.672c0-1.455-1.184-2.639-2.639-2.639h-26.722c-1.455 0-2.639 1.184-2.639 2.639v26.722c0 1.455 1.184 2.639 2.639 2.639h26.722c1.455 0 2.639-1.184 2.639-2.639v-21.912c0-0.277-0.224-0.501-0.501-0.501s-0.501 0.224-0.501 0.501v21.912c0 0.902-0.734 1.637-1.637 1.637h-26.722c-0.902 0-1.637-0.734-1.637-1.637v-26.722c0-0.902 0.734-1.637 1.637-1.637h26.722c0.903 0 1.637 0.734 1.637 1.637v2.672c0 0.277 0.224 0.501 0.501 0.501z"></path>
<path fill="#000" style="fill: var(--color7, #000)" d="M9.587 14.931c0.277 0 0.501-0.224 0.501-0.501v-2.171c0-0.277-0.224-0.501-0.501-0.501h-4.276c-0.277 0-0.501 0.224-0.501 0.501v14.43c0 0.277 0.224 0.501 0.501 0.501h4.276c0.277 0 0.501-0.224 0.501-0.501v-10.054c0-0.277-0.224-0.501-0.501-0.501s-0.501 0.224-0.501 0.501v9.553h-3.273v-13.428h3.274v1.67c0 0.277 0.224 0.501 0.501 0.501z"></path>
<path fill="#000" style="fill: var(--color7, #000)" d="M22.413 27.19h4.276c0.277 0 0.501-0.224 0.501-0.501v-10.154c0-1.265-0.599-2.474-1.687-3.404-1.020-0.872-2.341-1.373-3.624-1.373-2.118 0-3.46 0.704-4.309 1.572v-1.071c0-0.277-0.224-0.501-0.501-0.501h-4.276c-0.277 0-0.501 0.224-0.501 0.501v14.43c0 0.277 0.224 0.501 0.501 0.501h4.276c0.277 0 0.501-0.224 0.501-0.501v-6.948c0-1.341 1.127-2.171 2.171-2.171 1.258 0 2.171 0.913 2.171 2.171v6.948c0 0.277 0.224 0.501 0.501 0.501zM19.741 16.568c-1.526 0-3.173 1.213-3.173 3.173v6.447h-3.274v-13.428h3.274v2.171c0 0.229 0.161 0.433 0.383 0.487 0.229 0.056 0.472-0.061 0.572-0.274 0.742-1.582 2.208-2.384 4.356-2.384 2.034 0 4.309 1.614 4.309 3.775v9.653h-3.274v-6.447c0-1.809-1.364-3.173-3.173-3.173z"></path>
<path fill="#000" style="fill: var(--color7, #000)" d="M7.449 4.81c-1.455 0-2.639 1.184-2.639 2.639s1.184 2.639 2.639 2.639 2.639-1.184 2.639-2.639-1.184-2.639-2.639-2.639zM7.449 9.086c-0.902 0-1.637-0.734-1.637-1.637s0.734-1.637 1.637-1.637 1.637 0.734 1.637 1.637-0.734 1.637-1.637 1.637z"></path>
</symbol>
<symbol id="icon-volleyball" viewBox="0 0 32 32">
<path  fill="#ebf0f3" style="fill: var(--color11, #ebf0f3)" d="M29.633 7.623c0.184 0.294 0.352 0.597 0.515 0.903-0.163-0.294-0.335-0.609-0.515-0.903z"></path>
<path fill="#ebf0f3" style="fill: var(--color11, #ebf0f3)" d="M24.143 2.227l0.294 0.18z"></path>
<path fill="#44c4a1" style="fill: var(--color12, #44c4a1)" d="M21.613 10.132c-4.198 5.87-5.895 7.154-6.541 7.358 0.11 0.961 0.736 5.159 2.723 8.54 1.091-0.715 6.602-4.497 9.721-10.134 2.375-4.28 2.351-7.011 2.109-8.286-1.286-2.081-3.029-3.841-5.098-5.147 0.413 1.807-0.564 4.386-2.915 7.669z"></path>
<path fill="#ebf0f3" style="fill: var(--color11, #ebf0f3)" d="M10.424 1l0.102-0.041z"></path>
<path fill="#ebf0f3" style="fill: var(--color11, #ebf0f3)" d="M2.51 24.612l-0.286-0.462z"></path>
<path fill="#ebf0f3" style="fill: var(--color11, #ebf0f3)" d="M1.929 8.375l0.020-0.033z"></path>
<path fill="#ebf0f3" style="fill: var(--color11, #ebf0f3)" d="M2.98 25.29l-0.319-0.454z"></path>
<path fill="#ebf0f3" style="fill: var(--color11, #ebf0f3)" d="M14.72 31.941c-0.196 0-0.409-0.033-0.589-0.053 0.196 0.020 0.393 0.053 0.589 0.053z"></path>
<path fill="#ebf0f3" style="fill: var(--color11, #ebf0f3)" d="M23.011 30.384l-0.384 0.176z"></path>
<path fill="#e56353" style="fill: var(--color13, #e56353)" d="M23.849 5.174c0.409-1.32 0.409-2.228 0.204-2.833-0.025-0.074-0.053-0.143-0.078-0.212-3.91-2.249-8.587-2.744-12.881-1.365 3.039-0.012 6.048 0.604 8.838 1.811 1.452 0.622 2.779 1.503 3.916 2.6z"></path>
<path fill="#e56353" style="fill: var(--color13, #e56353)" d="M7.751 22.85c-0.9-2.561-1.504-5.216-1.799-7.914-1.479-0.068-2.96 0.108-4.382 0.519-0.128 3.392 0.385 6.777 1.513 9.978 2.588 3.546 6.52 5.871 10.874 6.43-2.624-1.864-4.742-4.922-6.205-9.014z"></path>
<path fill="#fcd462" style="fill: var(--color14, #fcd462)" d="M17.558 26.476v-0.029l-0.020-0.041c-0.594-0.991-1.091-2.036-1.484-3.123-0.681-1.884-1.153-3.838-1.406-5.825-1.66-0.91-3.433-1.597-5.273-2.044-0.974-0.237-1.967-0.391-2.968-0.458 0.291 2.648 0.883 5.254 1.766 7.767 1.14 3.168 3.18 7.076 6.712 9.239 0.376 0.025 0.752 0.045 1.136 0.045 2.218 0.002 4.412-0.459 6.442-1.353-1.933-0.617-3.601-2.036-4.905-4.178z"></path>
<path fill="#44c4a1" style="fill: var(--color12, #44c4a1)" d="M1.136 15.59c-0.386 0.133-0.766 0.286-1.136 0.458 0.006 2.819 0.761 5.585 2.187 8.016-0.78-2.755-1.134-5.612-1.051-8.474z"></path>
<path fill="#27a2db" style="fill: var(--color15, #27a2db)" d="M1.341 15.079c1.547-0.461 3.162-0.652 4.775-0.564h0.074c1.103 0.061 2.197 0.223 3.27 0.482 1.892 0.461 3.715 1.17 5.421 2.109 0.196-0.033 1.554-0.515 6.246-7.043-1.829-1.012-3.789-1.766-5.825-2.24-4.425-1.072-9.062-0.873-13.38 0.572-1.197 2.213-1.851 4.679-1.909 7.194 0.414-0.186 0.839-0.348 1.271-0.486z"></path>
<path fill="#e56353" style="fill: var(--color13, #e56353)" d="M32 15.999c0.002-2.591-0.627-5.142-1.831-7.436 0.049 1.562-0.343 4.051-2.281 7.538-3.176 5.723-8.777 9.578-9.872 10.293 1.136 1.807 2.686 3.328 4.787 3.912l0.233 0.066c5.487-2.687 8.966-8.263 8.965-14.373z"></path>
<path fill="#fcd462" style="fill: var(--color14, #fcd462)" d="M15.42 7.414c2.088 0.484 4.097 1.265 5.964 2.318 0.932-1.264 1.707-2.636 2.305-4.088-1.131-1.139-2.472-2.046-3.949-2.674-2.044-0.924-5.273-1.868-9.811-1.754-3.21 1.315-5.908 3.632-7.693 6.606 4.276-1.33 8.833-1.471 13.183-0.409z"></path>
<path fill="#d5d6db" style="fill: var(--color16, #d5d6db)" d="M23.035 30.372l-0.025 0.012z"></path>
<path fill="#d5d6db" style="fill: var(--color16, #d5d6db)" d="M2.661 24.837l-0.151-0.225z"></path>
<path fill="#d5d6db" style="fill: var(--color16, #d5d6db)" d="M13.956 31.872h0.163l-0.176-0.025z"></path>
<path fill="#d5d6db" style="fill: var(--color16, #d5d6db)" d="M3.082 25.442c-0.037-0.045-0.070-0.094-0.102-0.143 0.037 0.041 0.070 0.102 0.102 0.143z"></path>
<path fill="#d5d6db" style="fill: var(--color16, #d5d6db)" d="M22.447 30.646l0.18-0.086-0.184 0.086z"></path>
<path fill="#d5d6db" style="fill: var(--color16, #d5d6db)" d="M30.169 8.559l-0.020-0.033 0.020 0.037z"></path>
<path fill="#d5d6db" style="fill: var(--color16, #d5d6db)" d="M14.868 31.941h-0.143z"></path>
<path fill="#d5d6db" style="fill: var(--color16, #d5d6db)" d="M2.191 24.080l0.041 0.070-0.045-0.082z"></path>
<path fill="#d5d6db" style="fill: var(--color16, #d5d6db)" d="M23.971 2.124l0.168 0.098z"></path>
<path fill="#d5d6db" style="fill: var(--color16, #d5d6db)" d="M24.523 2.46l-0.086-0.053 0.090 0.057z"></path>
<path fill="#d5d6db" style="fill: var(--color16, #d5d6db)" d="M29.625 7.606v0.004l0.008 0.012z"></path>
<path fill="#d5d6db" style="fill: var(--color16, #d5d6db)" d="M11.095 0.763c-0.192 0.061-0.384 0.127-0.572 0.196 0.192-0.070 0.384-0.131 0.58-0.196z"></path>
<path fill="#d5d6db" style="fill: var(--color16, #d5d6db)" d="M9.917 1.196l0.503-0.196c-0.168 0.061-0.335 0.127-0.503 0.196z"></path>
<path fill="#d5d6db" style="fill: var(--color16, #d5d6db)" d="M1.921 8.391l0.008-0.016z"></path>
<path fill="#d5d6db" style="fill: var(--color16, #d5d6db)" d="M2.232 7.823c-0.098 0.169-0.192 0.337-0.282 0.503 0.090-0.168 0.188-0.335 0.286-0.503z"></path>
<path fill="#d5d6db" style="fill: var(--color16, #d5d6db)" d="M0.012 15.59v0.409c-0.012-0.143-0.004-0.282 0-0.409z"></path>
<path fill="#ebf0f3" style="fill: var(--color11, #ebf0f3)" d="M18.015 26.394c1.095-0.715 6.696-4.57 9.872-10.293 1.938-3.487 2.33-5.977 2.281-7.538v-0.037c-0.163-0.307-0.331-0.609-0.515-0.903 0.241 1.276 0.266 4.006-2.109 8.286-3.119 5.621-8.63 9.402-9.721 10.134-2.015-3.393-2.641-7.591-2.759-8.535 0.654-0.221 2.35-1.504 6.541-7.358 2.351-3.27 3.328-5.862 2.915-7.669l-0.090-0.057-0.294-0.18-0.168-0.098c0.025 0.070 0.053 0.139 0.078 0.212 0.188 0.605 0.225 1.513-0.204 2.833-1.134-1.095-2.456-1.976-3.904-2.6-2.789-1.213-5.8-1.835-8.842-1.827-0.196 0.066-0.409 0.127-0.58 0.196l-0.102 0.041-0.503 0.196c4.546-0.115 7.767 0.818 9.811 1.754 1.477 0.627 2.818 1.535 3.949 2.674-0.599 1.452-1.373 2.824-2.305 4.088-1.862-1.044-3.864-1.817-5.944-2.297-4.35-1.063-8.908-0.921-13.183 0.409-0.098 0.168-0.196 0.335-0.286 0.503l-0.021 0.033c4.318-1.432 8.953-1.618 13.372-0.535 2.039 0.476 4.002 1.232 5.833 2.248-4.693 6.541-6.050 7.011-6.246 7.043-1.708-0.94-3.534-1.649-5.429-2.109-1.073-0.259-2.168-0.421-3.27-0.482h-0.074c-1.612-0.088-3.228 0.103-4.775 0.564l-0.078 0.025c-0.426 0.136-0.843 0.296-1.251 0.478v0.462c0.367-0.173 0.742-0.327 1.124-0.462-0.084 2.862 0.27 5.719 1.051 8.474l0.045 0.082 0.286 0.462 0.143 0.225 0.319 0.454c0.033 0.049 0.066 0.098 0.102 0.143-1.127-3.201-1.641-6.587-1.513-9.978 1.423-0.41 2.903-0.584 4.382-0.515 0.295 2.698 0.899 5.354 1.799 7.914 1.463 4.088 3.581 7.15 6.205 8.993l0.176 0.025c0.196 0 0.409 0.041 0.589 0.053h0.143c-3.532-2.163-5.572-6.071-6.712-9.239-0.883-2.513-1.475-5.119-1.766-7.767 1.001 0.067 1.994 0.22 2.968 0.458 1.84 0.447 3.613 1.134 5.273 2.044 0.254 1.987 0.725 3.941 1.406 5.825 0.393 1.087 0.889 2.132 1.484 3.123l0.020 0.041v0.029c1.32 2.142 2.972 3.561 4.905 4.17l0.184-0.086 0.384-0.176h0.025l-0.233-0.066c-2.101-0.556-3.651-2.077-4.787-3.884z"></path>
</symbol>
<symbol id="icon-volleyball-net" viewBox="0 0 32 32">
<path d="M21.985 6.831c1.415-0.001 2.562-1.148 2.562-2.563s-1.148-2.563-2.563-2.563-2.563 1.148-2.563 2.563c0 0.708 0.287 1.349 0.752 1.813l0 0c0.463 0.463 1.102 0.75 1.809 0.75 0.002 0 0.003 0 0.005 0h-0zM23.268 5.551c-0.328 0.328-0.782 0.531-1.282 0.531-0.12 0-0.237-0.012-0.351-0.034l0.011 0.002c0.464-0.253 0.862-0.556 1.209-0.91l0.001-0.001c0.355-0.347 0.658-0.746 0.898-1.183l0.013-0.026c0.020 0.102 0.032 0.219 0.032 0.339 0 0.501-0.203 0.954-0.531 1.282v0zM23.266 2.986c0.057 0.14-0.138 0.819-0.941 1.623s-1.482 0.998-1.622 0.941c-0.057-0.14 0.138-0.819 0.941-1.623s1.482-0.998 1.622-0.941zM20.701 2.985c0.327-0.328 0.78-0.531 1.28-0.531 0.001 0 0.002 0 0.003 0h-0c0.12 0 0.237 0.012 0.35 0.034l-0.012-0.002c-0.464 0.253-0.862 0.556-1.209 0.91l-0.001 0.001c-0.355 0.347-0.658 0.745-0.898 1.183l-0.013 0.026c-0.020-0.102-0.032-0.219-0.032-0.339 0-0.501 0.203-0.954 0.531-1.282v0z"></path>
<path d="M30.063 28.016v-21.088c0-0.604-0.49-1.094-1.094-1.094s-1.094 0.49-1.094 1.094v0 0.82c-3.569 0.724-7.672 1.14-11.872 1.141h-0.001c-4.202-0.001-8.306-0.417-12.275-1.208l0.399 0.066v-0.819c-0-0.597-0.478-1.083-1.072-1.095l-0.001-0c-0.613-0.011-1.114 0.51-1.114 1.122v3.419c0 0.207 0.168 0.375 0.375 0.375s0.375-0.168 0.375-0.375v0-3.433c-0-0.002-0-0.004-0-0.006 0-0.18 0.135-0.329 0.31-0.351l0.002-0c0.010-0.001 0.021-0.002 0.032-0.002 0.19 0 0.344 0.154 0.344 0.344 0 0 0 0.001 0 0.001v-0 0.736c-0.038 0.015-0.072 0.034-0.101 0.058l0.001-0.001c-0.087 0.068-0.144 0.172-0.149 0.289l-0 0.001v8.769c0.002 0.168 0.103 0.312 0.247 0.378l0.003 0.001v10.841h-0.688v-15.125c0-0.207-0.168-0.375-0.375-0.375s-0.375 0.168-0.375 0.375v0 15.142c-0.84 0.055-1.5 0.749-1.5 1.598 0 0.001 0 0.002 0 0.003v-0 0.304c-0 0.002-0 0.005-0 0.007 0 0.207 0.164 0.375 0.368 0.384l0.001 0h4.457c0.201-0.009 0.361-0.174 0.361-0.377 0-0.005-0-0.010-0-0.015l0 0.001v-0.304c0-0.853-0.625-1.552-1.5-1.601v-10.697c3.562 0.711 7.658 1.118 11.848 1.118 0.010 0 0.019 0 0.029 0h0.029c0.013 0 0.028 0 0.043 0 4.174 0 8.253-0.403 12.201-1.173l-0.4 0.065v10.688c-0.875 0.050-1.5 0.749-1.5 1.601v0.304c-0 0.004-0 0.009-0 0.014 0 0.203 0.16 0.368 0.36 0.377l0.001 0h4.457c0.206-0.008 0.369-0.177 0.369-0.384 0-0.003-0-0.005-0-0.008v0-0.304c-0.007-0.847-0.663-1.538-1.495-1.601l-0.005-0zM4.886 29.563h-3.701c0.036-0.438 0.404-0.813 0.852-0.813h1.998c0.447 0 0.816 0.375 0.852 0.813zM5.625 16.839c-0.577-0.098-1.125-0.202-1.75-0.316v-1.168c0.625 0.111 1.173 0.214 1.75 0.309zM5.625 14.903c-0.577-0.096-1.125-0.2-1.75-0.312v-1.611c0.625 0.111 1.173 0.214 1.75 0.309zM5.625 12.528c-0.577-0.096-1.125-0.2-1.75-0.312v-1.611c0.625 0.111 1.173 0.214 1.75 0.309zM5.625 10.153c-0.577-0.096-1.125-0.2-1.75-0.312v-1.373c0.625 0.112 1.173 0.215 1.75 0.311zM8.125 17.209q-0.877-0.112-1.75-0.248v-1.178q0.873 0.133 1.75 0.243zM8.125 15.269q-0.877-0.11-1.75-0.245v-1.616q0.873 0.133 1.75 0.243zM8.125 12.894q-0.877-0.11-1.75-0.245v-1.616q0.873 0.133 1.75 0.243zM8.125 10.519q-0.877-0.11-1.75-0.245v-1.374q0.873 0.135 1.75 0.245zM10.625 17.478q-0.876-0.076-1.75-0.178v-1.187q0.874 0.098 1.75 0.172zM10.625 15.533q-0.876-0.075-1.75-0.175v-1.62q0.874 0.098 1.75 0.172zM10.625 13.158q-0.876-0.075-1.75-0.175v-1.62q0.874 0.098 1.75 0.172zM10.625 10.783q-0.876-0.075-1.75-0.175v-1.375q0.874 0.099 1.75 0.175zM13.125 17.645q-0.875-0.041-1.75-0.106v-1.194q0.874 0.064 1.75 0.103zM13.125 15.697q-0.875-0.040-1.75-0.104v-1.623q0.874 0.064 1.75 0.103zM13.125 13.322q-0.875-0.040-1.75-0.104v-1.623q0.874 0.064 1.75 0.103zM13.125 10.947q-0.875-0.040-1.75-0.104v-1.375q0.874 0.064 1.75 0.104zM15.625 17.712q-0.875-0.006-1.75-0.036v-1.199q0.875 0.029 1.75 0.034zM15.625 15.761q-0.875-0.005-1.75-0.035v-1.625q0.875 0.029 1.75 0.034zM15.625 13.386q-0.875-0.005-1.75-0.035v-1.625q0.875 0.029 1.75 0.034zM15.625 11.011q-0.875-0.005-1.75-0.035v-1.375q0.875 0.030 1.75 0.034zM28.625 17.186c0.144-0.051 0.246-0.185 0.25-0.342v-8.832c-0.005-0.118-0.062-0.222-0.148-0.289l-0.001-0.001c-0.029-0.023-0.062-0.043-0.098-0.057l-0.003-0.001v-0.735c0-0.19 0.154-0.344 0.344-0.344s0.344 0.154 0.344 0.344v0 21.072h-0.688zM26.375 8.78c0.577-0.096 1.125-0.199 1.75-0.311v1.375c-0.625 0.112-1.173 0.216-1.75 0.312zM26.375 10.915c0.577-0.095 1.125-0.198 1.75-0.309v1.611c-0.625 0.112-1.173 0.216-1.75 0.312zM26.375 13.29c0.577-0.095 1.125-0.198 1.75-0.309v1.611c-0.625 0.112-1.173 0.216-1.75 0.312zM18.125 17.678q-0.875 0.029-1.75 0.034v-1.201q0.875-0.005 1.75-0.034zM18.125 15.727q-0.875 0.030-1.75 0.034v-1.625q0.875-0.005 1.75-0.034zM18.125 13.352q-0.875 0.030-1.75 0.034v-1.625q0.875-0.005 1.75-0.034zM18.125 10.977q-0.875 0.030-1.75 0.034v-1.375q0.875-0.005 1.75-0.034zM20.625 17.544q-0.874 0.065-1.75 0.104v-1.2q0.875-0.040 1.75-0.102zM20.625 15.594q-0.874 0.064-1.75 0.104v-1.624q0.875-0.039 1.75-0.102zM20.625 13.219q-0.874 0.064-1.75 0.104v-1.624q0.875-0.039 1.75-0.102zM20.625 10.844q-0.874 0.064-1.75 0.104v-1.375q0.875-0.040 1.75-0.104zM23.125 17.308q-0.874 0.1-1.75 0.176v-1.198q0.876-0.074 1.75-0.171zM23.125 15.36q-0.874 0.099-1.75 0.174v-1.623q0.876-0.074 1.75-0.171zM23.125 12.985q-0.874 0.099-1.75 0.174v-1.623q0.876-0.074 1.75-0.171zM23.125 10.61q-0.874 0.099-1.75 0.174v-1.375q0.876-0.075 1.75-0.175zM25.625 16.971q-0.873 0.136-1.75 0.247v-1.191q0.877-0.109 1.75-0.242zM25.625 15.025q-0.873 0.135-1.75 0.245v-1.619q0.877-0.109 1.75-0.242zM25.625 12.65q-0.873 0.135-1.75 0.245v-1.619q0.877-0.109 1.75-0.242zM25.625 10.275q-0.873 0.135-1.75 0.245v-1.376q0.877-0.11 1.75-0.245zM26.375 16.849v-1.184c0.577-0.095 1.125-0.198 1.75-0.309v1.179c-0.625 0.113-1.173 0.217-1.75 0.314zM27.114 29.563c0.036-0.438 0.404-0.813 0.852-0.813h1.998c0.447 0 0.815 0.375 0.852 0.813z"></path>
<path d="M5.375 25.401c-0.207 0-0.375 0.168-0.375 0.375v0 1.187c0 0.207 0.168 0.375 0.375 0.375s0.375-0.168 0.375-0.375v0-1.187c0-0.207-0.168-0.375-0.375-0.375v0z"></path>
<path d="M5.375 20.792c-0.207 0-0.375 0.168-0.375 0.375v0 3.226c0 0.207 0.168 0.375 0.375 0.375s0.375-0.168 0.375-0.375v0-3.226c0-0.207-0.168-0.375-0.375-0.375v0z"></path>
<path d="M5.375 19.093c-0.207 0-0.375 0.168-0.375 0.375v0 0.3c0 0.207 0.168 0.375 0.375 0.375s0.375-0.168 0.375-0.375v0-0.3c0-0.207-0.168-0.375-0.375-0.375v0z"></path>
</symbol>
<symbol id="icon-shuttlecock" viewBox="0 0 32 32">
<path fill="#b1e4f9" style="fill: var(--color17, #b1e4f9)" d="M13.135 23.193l15.902-8.939 2.494 1.082-0.423 2.87-16.655 6.305z"></path>
<path fill="#d3effb" style="fill: var(--color18, #d3effb)" d="M11.724 21.782l14.303-11.668 3.011 0.941v3.199l-15.902 8.939z"></path>
<path fill="#b1e4f9" style="fill: var(--color17, #b1e4f9)" d="M8.807 18.865l8.939-15.902-1.082-2.494-2.87 0.423-6.305 16.655z"></path>
<path fill="#d3effb" style="fill: var(--color18, #d3effb)" d="M10.218 20.276l11.668-14.303-0.941-3.011h-3.199l-8.939 15.902z"></path>
<path fill="#f4fbff" style="fill: var(--color19, #f4fbff)" d="M10.688 29.78c-2.339 2.339-6.13 2.339-8.469 0s-2.339-6.13 0-8.469l3.011-3.011 8.469 8.469z"></path>
<path fill="#d3effb" style="fill: var(--color18, #d3effb)" d="M12.335 25.405l-3.011 3.011c-2.106 2.106-5.391 2.315-7.732 0.627 0.186 0.258 0.395 0.505 0.627 0.737 2.339 2.339 6.13 2.339 8.469 0l3.011-3.011z"></path>
<path fill="#df75a5" style="fill: var(--color20, #df75a5)" d="M3.728 19.803l8.468 8.468-1.505 1.505-8.468-8.468z"></path>
<path fill="#dd5790" style="fill: var(--color21, #dd5790)" d="M9.32 28.414l1.505-1.505 1.364 1.364-1.505 1.505z"></path>
<path fill="#f4fbff" style="fill: var(--color19, #f4fbff)" d="M10.971 21.029l-0.753-0.753 11.668-14.303 3.482 0.659 0.659 3.482-14.303 11.668z"></path>
<path fill="#000" style="fill: var(--color7, #000)" d="M31.718 14.906l-2.211-0.96v-2.892c0-0.205-0.133-0.386-0.329-0.447l-2.743-0.857-0.606-3.205c-0.036-0.189-0.184-0.338-0.373-0.373l-3.205-0.606-0.857-2.743c-0.061-0.196-0.242-0.329-0.447-0.329h-2.891l-0.96-2.212c-0.084-0.194-0.289-0.308-0.498-0.277l-2.87 0.423c-0.168 0.025-0.31 0.139-0.37 0.298l-1.535 4.054c-0.092 0.242 0.030 0.513 0.273 0.604 0.055 0.021 0.111 0.030 0.166 0.030 0.189 0 0.367-0.115 0.438-0.303l1.437-3.796 2.242-0.331 0.847 1.95-8.523 15.161-0.666-0.666 3.889-10.272c0.092-0.242-0.030-0.513-0.273-0.604s-0.513 0.030-0.604 0.272l-3.961 10.462-1.102 1.102-0.421-0.421c-0.183-0.183-0.48-0.183-0.663 0l-3.010 3.010c-0 0-0.001 0.001-0.001 0.001s-0.001 0.001-0.002 0.002c-2.516 2.518-2.515 6.613 0.002 9.13 1.259 1.259 2.912 1.888 4.566 1.888s3.306-0.629 4.564-1.887c0.001-0.001 0.001-0.001 0.002-0.002s0.001-0.001 0.001-0.001l3.010-3.010c0.183-0.183 0.183-0.48 0-0.663l-0.421-0.421 1.103-1.103 16.561-6.269c0.159-0.060 0.273-0.202 0.298-0.37l0.423-2.87c0.031-0.21-0.083-0.414-0.277-0.499zM25.514 9.927l-13.758 11.224-0.906-0.906 11.224-13.758 2.893 0.547zM10.128 22.535l0.842-0.843 0.984 0.984-0.843 0.843zM8.482 20.888l0.842-0.843 0.984 0.984-0.842 0.843zM18.020 3.431h2.58l0.763 2.441-11.181 13.705-0.793-0.793zM7.489 18.211l1.172 1.172-0.843 0.843-1.172-1.172zM2.551 29.449c-2.040-2.040-2.145-5.293-0.316-7.459l4.409 4.409c0.092 0.091 0.212 0.137 0.332 0.137s0.24-0.046 0.332-0.137c0.183-0.183 0.183-0.48 0-0.663l-4.424-4.424 0.843-0.843 7.806 7.806-0.843 0.843-1.835-1.835c-0.183-0.183-0.48-0.183-0.663 0s-0.183 0.48 0 0.663l1.82 1.82c-2.166 1.829-5.419 1.724-7.459-0.316zM12.194 27.612l-7.806-7.806 0.843-0.843 7.806 7.806zM11.775 24.181l0.843-0.843 1.172 1.172-0.842 0.843zM30.684 17.865l-16.114 6.1-0.666-0.666 5.886-3.309c0.226-0.127 0.306-0.413 0.179-0.638s-0.413-0.306-0.638-0.179l-6.115 3.437-0.793-0.793 13.705-11.181 2.442 0.763v2.58l-7.332 4.122c-0.226 0.127-0.306 0.413-0.179 0.638 0.086 0.153 0.245 0.239 0.409 0.239 0.078 0 0.157-0.019 0.229-0.060l7.367-4.142 1.951 0.847z"></path>
</symbol>
<symbol id="icon-snowboarder" viewBox="0 0 32 32">
<path fill="#9fc2cc" style="fill: var(--color22, #9fc2cc)" d="M32 16c0 8.837-7.163 16-16 16-2.080 0-4.067-0.396-5.889-1.119-0.211-0.084-0.42-0.172-0.627-0.265-1.469-0.656-2.822-1.527-4.018-2.573-0.568-0.497-1.1-1.034-1.592-1.605-0.302-0.35-0.588-0.714-0.859-1.089-0.063-0.088-0.126-0.176-0.187-0.265-1.783-2.581-2.827-5.71-2.827-9.084 0-8.837 7.163-16 16-16s16 7.163 16 16z"></path>
<path fill="#e8c018" style="fill: var(--color23, #e8c018)" d="M23.882 28.099v1.828c-2.202 1.249-4.73 1.991-7.425 2.067-0.152 0.005-0.304 0.007-0.457 0.007s-0.305-0.002-0.457-0.007c-1.526-0.042-2.998-0.299-4.389-0.74-1.064-0.338-2.081-0.784-3.037-1.326v-1.828c0-0.043 0.001-0.086 0.002-0.129 0.006-0.289 0.033-0.573 0.079-0.85 0.441-2.661 2.649-4.726 5.378-4.946 0.161-0.013 0.323-0.020 0.487-0.020h3.872c0.458 0 0.903 0.051 1.331 0.149 2.332 0.534 4.14 2.437 4.535 4.816 0.046 0.278 0.073 0.562 0.080 0.852 0.001 0.042 0.001 0.085 0.001 0.129z"></path>
<path fill="#ffd833" style="fill: var(--color24, #ffd833)" d="M23.883 28.099v1.828c-0.956 0.542-1.972 0.989-3.037 1.326-0.519 0.165-1.048 0.304-1.588 0.415-0.924 0.191-1.876 0.303-2.851 0.327-0.135 0.003-0.271 0.005-0.407 0.005-1.689 0-3.317-0.262-4.846-0.747v-3.154c0-0.421 0.044-0.833 0.127-1.229 0.17-0.81 0.505-1.558 0.968-2.21 0.2-0.282 0.424-0.545 0.669-0.787 1.074-1.063 2.552-1.719 4.183-1.719h0.835c0.48 0 0.948 0.057 1.395 0.165 0.538 0.129 1.046 0.331 1.515 0.595 1.813 1.018 3.037 2.959 3.037 5.186z"></path>
<path fill="#1da2dd" style="fill: var(--color25, #1da2dd)" d="M23.88 27.97l-2.194-1.525h-11.374l-2.193 1.524c0.006-0.289 0.033-0.573 0.079-0.85l1.909-1.327h11.784l1.909 1.326c0.046 0.278 0.073 0.562 0.080 0.852z"></path>
<path fill="#0c85a5" style="fill: var(--color26, #0c85a5)" d="M11.619 25.792c-0.090 0.212-0.167 0.43-0.23 0.653h-1.076l-2.193 1.524c0.006-0.289 0.033-0.573 0.079-0.85l1.909-1.327z"></path>
<path fill="#e8c018" style="fill: var(--color23, #e8c018)" d="M18.557 19.054v3.139c0 1.149-0.758 2.12-1.801 2.443-0.239 0.074-0.493 0.114-0.757 0.114-1.413 0-2.557-1.145-2.557-2.557v-3.139z"></path>
<path fill="#ffd833" style="fill: var(--color24, #ffd833)" d="M18.557 21.994v0.199c0 1.149-0.758 2.12-1.801 2.443-0.942-0.289-1.65-1.108-1.781-2.11 0.171 0.011 0.343 0.016 0.515 0.016 0.484 0 0.958-0.038 1.42-0.114 0.569-0.092 1.119-0.238 1.646-0.433z"></path>
<path fill="#e8c018" style="fill: var(--color23, #e8c018)" d="M16.457 20.067v11.927c-0.152 0.005-0.304 0.007-0.457 0.007s-0.305-0.002-0.457-0.007v-11.927z"></path>
<path fill="#1da2dd" style="fill: var(--color25, #1da2dd)" d="M16.933 22.507c0 0.515-0.418 0.933-0.933 0.933s-0.933-0.418-0.933-0.933c0-0.515 0.418-0.933 0.933-0.933s0.933 0.418 0.933 0.933z"></path>
<path fill="#1da2dd" style="fill: var(--color25, #1da2dd)" d="M16.349 24.913h-0.699c-0.22 0-0.392-0.191-0.368-0.41l0.176-1.62h1.083l0.176 1.62c0.024 0.219-0.147 0.41-0.368 0.41z"></path>
<path fill="#f6ba97" style="fill: var(--color27, #f6ba97)" d="M10.18 15.596c0 0.982-0.718 1.796-1.657 1.947-0.103 0.017-0.208 0.025-0.316 0.025-1.090 0-1.973-0.883-1.973-1.973s0.883-1.973 1.973-1.973c0.108 0 0.213 0.009 0.316 0.025 0.939 0.151 1.657 0.966 1.657 1.947z"></path>
<path fill="#eaa27f" style="fill: var(--color28, #eaa27f)" d="M10.18 15.596c0 0.982-0.718 1.796-1.657 1.947-0.171-0.62-0.262-1.273-0.262-1.947s0.091-1.327 0.262-1.947c0.939 0.151 1.657 0.966 1.657 1.947z"></path>
<path fill="#eaa27f" style="fill: var(--color28, #eaa27f)" d="M8.912 15.596c0 0.389-0.316 0.705-0.705 0.705s-0.705-0.316-0.705-0.705c0-0.389 0.316-0.705 0.705-0.705s0.705 0.316 0.705 0.705z"></path>
<path fill="#f6ba97" style="fill: var(--color27, #f6ba97)" d="M21.819 15.596c0 0.982 0.718 1.796 1.657 1.947 0.103 0.017 0.209 0.025 0.316 0.025 1.090 0 1.973-0.883 1.973-1.973s-0.883-1.973-1.973-1.973c-0.108 0-0.213 0.009-0.316 0.025-0.939 0.151-1.657 0.966-1.657 1.947z"></path>
<path fill="#eaa27f" style="fill: var(--color28, #eaa27f)" d="M21.819 15.596c0 0.982 0.718 1.796 1.657 1.947 0.171-0.62 0.262-1.273 0.262-1.947s-0.091-1.327-0.262-1.947c-0.939 0.151-1.657 0.966-1.657 1.947z"></path>
<path fill="#eaa27f" style="fill: var(--color28, #eaa27f)" d="M23.34 11.752v2.795c0 3.653-2.668 6.683-6.162 7.245-0.012 0.002-0.024 0.004-0.036 0.006-0.372 0.059-0.753 0.089-1.142 0.089-4.054 0-7.34-3.286-7.34-7.34v-2.795c0-0.854 0.146-1.674 0.415-2.436 1.004-2.856 3.726-4.905 6.925-4.905h0.001c0.389 0 0.771 0.030 1.143 0.089 3.511 0.549 6.197 3.587 6.197 7.251z"></path>
<path fill="#eaa27f" style="fill: var(--color28, #eaa27f)" d="M24.497 15.596c0 0.389-0.316 0.705-0.705 0.705s-0.705-0.316-0.705-0.705c0-0.389 0.316-0.705 0.705-0.705s0.705 0.316 0.705 0.705z"></path>
<path fill="#f6ba97" style="fill: var(--color27, #f6ba97)" d="M23.336 14.761c-0.101 3.557-2.733 6.481-6.159 7.032-0.012 0.002-0.024 0.004-0.036 0.006-2.393-0.374-4.402-1.904-5.438-4.001 0.36 0.129 0.739 0.167 1.107 0.122 0.828-0.101 1.596-0.626 1.949-1.486 0.227-0.555 0.734-0.832 1.24-0.832s1.013 0.277 1.24 0.832c0.626 1.527 2.562 1.995 3.816 0.921l1.236-1.057c0.484-0.415 0.842-0.948 1.045-1.537z"></path>
<path fill="#eaa27f" style="fill: var(--color28, #eaa27f)" d="M15.999 18.489c-0.615 0-1.229-0.154-1.79-0.462-0.158-0.087-0.216-0.285-0.129-0.444s0.286-0.216 0.444-0.129c0.924 0.508 2.026 0.508 2.95 0 0.158-0.087 0.356-0.029 0.443 0.129s0.029 0.357-0.129 0.444c-0.56 0.308-1.175 0.462-1.79 0.462z"></path>
<path fill="#d39272" style="fill: var(--color29, #d39272)" d="M16.832 16.543h-1.665c-0.198 0-0.359-0.161-0.359-0.359s0.161-0.359 0.359-0.359h1.665c0.198 0 0.359 0.161 0.359 0.359s-0.161 0.359-0.359 0.359z"></path>
<path fill="#2f373b" style="fill: var(--color30, #2f373b)" d="M14.436 14.12c0 0.46-0.373 0.833-0.833 0.833s-0.833-0.373-0.833-0.833c0-0.46 0.373-0.833 0.833-0.833s0.833 0.373 0.833 0.833z"></path>
<path fill="#2f373b" style="fill: var(--color30, #2f373b)" d="M19.228 14.12c0 0.46-0.373 0.833-0.833 0.833s-0.833-0.373-0.833-0.833c0-0.46 0.373-0.833 0.833-0.833s0.833 0.373 0.833 0.833z"></path>
<path fill="#fff" style="fill: var(--color6, #fff)" d="M14.266 13.973c0 0.197-0.16 0.357-0.357 0.357s-0.357-0.16-0.357-0.357c0-0.197 0.16-0.357 0.357-0.357s0.357 0.16 0.357 0.357z"></path>
<path fill="#fff" style="fill: var(--color6, #fff)" d="M19.099 13.973c0 0.197-0.16 0.357-0.357 0.357s-0.357-0.16-0.357-0.357c0-0.197 0.16-0.357 0.357-0.357s0.357 0.16 0.357 0.357z"></path>
<path fill="#f71c55" style="fill: var(--color31, #f71c55)" d="M24.828 9.937c0.22 0.704-0.295 0.854-0.998 0.854-0.697 0 0.159 2.428-0.491 2.777-0.846-2.612-2.705-4.032-4.353-4.799s-3.085-0.882-3.085-0.882c1.012 1.012 0.676 2.219 0.676 2.219-1.074-0.701-2.056-1.025-2.851-1.161-1.203-0.206-1.973 0.020-1.973 0.020l0.522 1.241c-2.090 0-3.754 2.463-3.754 2.463-0.697-0.697 0.49-1.538-0.355-1.878-1.265-0.508-0.788-2.806-0.788-2.806l1.045 0.522s-0.49-2.971 1.11-4.571l1.176 0.588s0.588-3.461 4.702-3.788v2.090s2.090-2.090 6.857-1.045l-1.633 1.894s3.396 0.261 4.506 3.918h-1.633s0.864 0.892 1.318 2.344z"></path>
<path fill="#ffd833" style="fill: var(--color24, #ffd833)" d="M23.387 13.616l0.443-0.144c0.28 0 0.508-0.227 0.508-0.508v-1.666c0-0.28-0.227-0.508-0.508-0.508h-0.299z"></path>
<path fill="#dd104f" style="fill: var(--color32, #dd104f)" d="M22.269 1.781c-4.179 0-5.126 1.74-5.126 1.74l-1.73-0.696s2.090-2.090 6.857-1.045z"></path>
<path fill="#dd104f" style="fill: var(--color32, #dd104f)" d="M13.728 8.945c-1.203-0.206-1.973 0.020-1.973 0.020l0.522 1.241c-2.090 0-3.754 2.463-3.754 2.463-1.967-1.967-1.144-4.684-1.144-4.684l1.045 0.522s-0.49-2.971 1.11-4.571l1.176 0.588s0.588-3.461 4.702-3.788c-2.155 1.437-2.155 4.18-2.155 4.18l2.482-0.653s-4.955 2.8-2.011 4.682z"></path>
<path fill="#e8c018" style="fill: var(--color23, #e8c018)" d="M8.168 13.472h0.626l-0.326-2.681h-0.299c-0.28 0-0.508 0.227-0.508 0.508v1.666c0 0.28 0.227 0.508 0.508 0.508z"></path>
<path fill="#2f373b" style="fill: var(--color30, #2f373b)" d="M23.531 10.791v2.377c0 1.036-0.453 2.021-1.24 2.695l-1.236 1.057c-1.254 1.074-3.19 0.605-3.816-0.921-0.227-0.555-0.734-0.832-1.24-0.832s-1.013 0.277-1.24 0.832c-0.353 0.86-1.121 1.385-1.949 1.486-0.642 0.080-1.32-0.095-1.868-0.564l-1.235-1.057c-0.788-0.674-1.241-1.658-1.241-2.695v-2.377c0-0.508 0.309-0.966 0.78-1.156l2.037-0.823c0.203-0.082 0.41-0.154 0.62-0.215 0.597-0.175 1.217-0.264 1.841-0.264h4.51c0.843 0 1.679 0.163 2.461 0.479l2.036 0.823c0.471 0.191 0.78 0.648 0.78 1.156z"></path>
<path fill="#151a1c" style="fill: var(--color33, #151a1c)" d="M12.811 17.484c-0.642 0.080-1.32-0.095-1.868-0.564l-1.235-1.057c-0.788-0.674-1.241-1.658-1.241-2.695v-2.377c0-0.508 0.309-0.966 0.78-1.156l2.037-0.823c0.203-0.082 0.41-0.154 0.62-0.215-1.412 6.038-0.291 8.882 0.907 8.887z"></path>
<path fill="#1da2dd" style="fill: var(--color25, #1da2dd)" d="M22.446 11.286v1.882c0 0.719-0.314 1.402-0.86 1.87l-1.236 1.057c-0.311 0.266-0.642 0.322-0.864 0.322-0.037 0-0.074-0.001-0.11-0.004-0.248-0.020-0.48-0.107-0.675-0.248-0.121-0.086-0.227-0.192-0.313-0.315-0.057-0.081-0.106-0.169-0.145-0.263-0.076-0.186-0.173-0.359-0.287-0.515-0.287-0.394-0.686-0.689-1.143-0.851-0.221-0.078-0.454-0.126-0.696-0.136-0.039-0.003-0.078-0.003-0.118-0.003-0.118 0-0.235 0.009-0.349 0.026-0.842 0.121-1.565 0.675-1.895 1.48-0.207 0.504-0.695 0.831-1.242 0.831-0.001 0-0.001 0-0.001 0-0.17 0-0.404-0.032-0.645-0.168-0.072-0.041-0.146-0.091-0.219-0.153l-1.236-1.057c-0.168-0.144-0.314-0.308-0.436-0.487-0.274-0.404-0.425-0.886-0.425-1.384v-1.882c0-0.366 0.222-0.695 0.56-0.831l1.577-0.637c0.176-0.071 0.354-0.133 0.534-0.185 0.278-0.080 0.56-0.138 0.846-0.174 0.223-0.028 0.448-0.041 0.674-0.041h4.511c0.218 0 0.436 0.013 0.652 0.039 0.481 0.058 0.952 0.179 1.402 0.361l0.032 0.013 1.545 0.624c0.031 0.012 0.061 0.027 0.090 0.042 0.288 0.155 0.47 0.456 0.47 0.789z"></path>
<path fill="#f71c55" style="fill: var(--color31, #f71c55)" d="M16.579 10.106c-1.074-0.701-2.056-1.025-2.851-1.161-0.024-0.004-0.048-0.008-0.071-0.011-1.162-0.186-1.902 0.031-1.902 0.031l0.522 1.241c-0.953 0-1.818 0.512-2.477 1.070-0.877 0.742-2.236 0.299-2.478-0.824-0.002-0.007-0.003-0.015-0.005-0.022l3.914-3.227 4.669 0.686c1.012 1.012 0.677 2.219 0.677 2.219z"></path>
<path fill="#dd104f" style="fill: var(--color32, #dd104f)" d="M13.728 8.945c-0.024-0.004-0.048-0.008-0.071-0.011-1.162-0.186-1.902 0.031-1.902 0.031l0.522 1.241c-0.953 0-1.818 0.512-2.477 1.070-0.877 0.742-2.236 0.299-2.478-0.824-0.002-0.007-0.003-0.015-0.005-0.022l3.914-3.227 1.567 0.23c-0.046 0.523 0.198 1.047 0.929 1.514z"></path>
<path fill="#0c85a5" style="fill: var(--color26, #0c85a5)" d="M21.312 10.223l-2.611 5.942c-0.121-0.086-0.227-0.192-0.313-0.315-0.057-0.081-0.106-0.169-0.145-0.263-0.076-0.186-0.173-0.359-0.287-0.515 0.675-1.492 1.713-3.781 2.385-5.241l0.66 0.267z"></path>
<path fill="#0c85a5" style="fill: var(--color26, #0c85a5)" d="M14.87 9.418l-3.002 6.831c-0.072-0.041-0.146-0.091-0.219-0.153l-1.236-1.057c-0.168-0.144-0.314-0.308-0.436-0.487l1.377-3.123c0.029-0.001 0.483-0.977 0.869-1.796 0.278-0.080 0.56-0.138 0.846-0.174 0.223-0.028 0.448-0.041 0.674-0.041z"></path>
<path fill="#0c85a5" style="fill: var(--color26, #0c85a5)" d="M18.906 9.456l-2.093 4.764c-0.221-0.078-0.454-0.126-0.696-0.136-0.039-0.003-0.078-0.003-0.118-0.003-0.118 0-0.235 0.009-0.349 0.026 0.713-1.574 1.605-3.536 2.138-4.688h0.466c0.218 0 0.436 0.013 0.652 0.039z"></path>
<path fill="#0c85a5" style="fill: var(--color26, #0c85a5)" d="M21.976 10.497l-2.6 5.916c-0.402-0.033-0.761-0.24-0.988-0.563 0.573-1.269 1.803-3.986 2.614-5.752l0.884 0.357c0.031 0.012 0.061 0.027 0.090 0.042z"></path>
<path fill="#673389" style="fill: var(--color34, #673389)" d="M10.623 10.266c0 0.122-0.004 0.244-0.014 0.366-0.147 1.794-0.283 3.588-0.405 5.385-0.012 0.172-0.023 0.344-0.035 0.517-0.086 1.29-0.166 2.58-0.24 3.871-0.055 0.959-0.106 1.917-0.153 2.876-0.012 0.255-0.025 0.511-0.037 0.766-0.037 0.788-0.072 1.576-0.104 2.365-0.059 1.402-0.109 2.803-0.151 4.204-1.469-0.656-2.822-1.527-4.018-2.573-0.022-0.020-0.045-0.039-0.067-0.060-0.542-0.479-1.052-0.997-1.525-1.545-0.047-0.054-0.093-0.109-0.139-0.165-0.251-0.299-0.492-0.607-0.72-0.925-0.063-0.088-0.126-0.176-0.187-0.265-0.030-0.67-0.062-1.34-0.095-2.010-0.069-1.375-0.145-2.751-0.229-4.125-0.001-0.024-0.003-0.049-0.005-0.073-0.108-1.789-0.229-3.576-0.364-5.363-0.046-0.616-0.093-1.232-0.142-1.849-0.027-0.344-0.054-0.688-0.083-1.031-0.208-2.546 1.799-4.726 4.351-4.726 1.551 0 2.9 0.804 3.672 2.008 0.439 0.68 0.692 1.489 0.692 2.352z"></path>
<path fill="#512375" style="fill: var(--color35, #512375)" d="M10.204 16.018c-0.012 0.172-0.023 0.344-0.035 0.517-0.086 1.29-0.166 2.58-0.24 3.871l-7.198 2.669c-0.069-1.375-0.145-2.751-0.229-4.125-0.001-0.024-0.003-0.049-0.005-0.073z"></path>
<path fill="#512375" style="fill: var(--color35, #512375)" d="M9.739 24.047c-0.037 0.788-0.072 1.576-0.104 2.365l-4.236 1.571c-0.542-0.479-1.052-0.997-1.525-1.545-0.047-0.054-0.093-0.109-0.139-0.165z"></path>
<path fill="#eaa27f" style="fill: var(--color28, #eaa27f)" d="M5.203 18.238v1.859c0 0.7-0.432 1.3-1.045 1.545-0.192 0.078-0.401 0.12-0.62 0.12-0.92 0-1.665-0.746-1.665-1.665v-1.859c0-0.919 0.746-1.665 1.665-1.665 0.219 0 0.428 0.042 0.62 0.119 0.21 0.084 0.4 0.21 0.557 0.368 0.301 0.302 0.488 0.718 0.488 1.177z"></path>
<path fill="#f6ba97" style="fill: var(--color27, #f6ba97)" d="M5.203 18.238v1.859c0 0.7-0.432 1.3-1.045 1.545-0.613-0.245-1.045-0.845-1.045-1.545v-1.859c0-0.7 0.432-1.3 1.045-1.546 0.21 0.084 0.4 0.21 0.557 0.368 0.301 0.302 0.488 0.718 0.488 1.177z"></path>
<path fill="#f2efea" style="fill: var(--color36, #f2efea)" d="M27.731 18.479c0 0.379-0.307 0.686-0.686 0.686s-0.686-0.307-0.686-0.686 0.307-0.686 0.686-0.686c0.379 0 0.686 0.307 0.686 0.686z"></path>
<path fill="#f2efea" style="fill: var(--color36, #f2efea)" d="M30.376 13.091c0 0.379-0.307 0.686-0.686 0.686s-0.686-0.307-0.686-0.686 0.307-0.686 0.686-0.686c0.379 0 0.686 0.307 0.686 0.686z"></path>
<path fill="#f2efea" style="fill: var(--color36, #f2efea)" d="M26.739 9.776c0 0.379-0.307 0.686-0.686 0.686s-0.686-0.307-0.686-0.686 0.307-0.686 0.686-0.686c0.379 0 0.686 0.307 0.686 0.686z"></path>
<path fill="#f2efea" style="fill: var(--color36, #f2efea)" d="M23.916 21.639c0 0.379-0.307 0.686-0.686 0.686s-0.686-0.307-0.686-0.686 0.307-0.686 0.686-0.686 0.686 0.307 0.686 0.686z"></path>
<path fill="#f2efea" style="fill: var(--color36, #f2efea)" d="M29.321 23.73c0 0.379-0.307 0.686-0.686 0.686s-0.686-0.307-0.686-0.686 0.307-0.686 0.686-0.686c0.379 0 0.686 0.307 0.686 0.686z"></path>
<path fill="#f2efea" style="fill: var(--color36, #f2efea)" d="M1.675 15.54c0 0.379-0.307 0.686-0.686 0.686s-0.686-0.307-0.686-0.686c0-0.379 0.307-0.686 0.686-0.686s0.686 0.307 0.686 0.686z"></path>
<path fill="#f2efea" style="fill: var(--color36, #f2efea)" d="M26.222 27.236c0 0.379-0.307 0.686-0.686 0.686s-0.686-0.307-0.686-0.686c0-0.379 0.307-0.686 0.686-0.686s0.686 0.307 0.686 0.686z"></path>
<path fill="#f2efea" style="fill: var(--color36, #f2efea)" d="M8.672 4.227c0 0.379-0.307 0.686-0.686 0.686s-0.686-0.307-0.686-0.686c0-0.379 0.307-0.686 0.686-0.686s0.686 0.307 0.686 0.686z"></path>
</symbol>
<symbol id="icon-meditation" viewBox="0 0 32 32">
<path fill="#ffcf11" style="fill: var(--color37, #ffcf11)" d="M32 16c0 8.837-7.163 16-16 16s-16-7.163-16-16c0-8.837 7.163-16 16-16s16 7.163 16 16z"></path>
<path fill="#ffe854" style="fill: var(--color38, #ffe854)" d="M26.938 16c0 6.041-4.897 10.938-10.938 10.938s-10.938-4.897-10.938-10.938c0-6.041 4.897-10.938 10.938-10.938s10.938 4.897 10.938 10.938z"></path>
<path fill="#0c99e6" style="fill: var(--color39, #0c99e6)" d="M20.079 25.702l-4.079-1.325-4.079 1.325s-12.4-0.035-10.011 4.969h28.18c2.389-5.004-10.011-4.969-10.011-4.969z"></path>
<path fill="#ffaea1" style="fill: var(--color40, #ffaea1)" d="M30.090 30.671c-0.385 0.791-3.202 1.524-8.635 1.126s-10.424-1.546-10.424-1.546v-0.894s10.159-1.050 13.979-0.983c3.821 0.066 5.477 1.48 5.079 2.297z"></path>
<path fill="#f4958c" style="fill: var(--color41, #f4958c)" d="M25.251 28.457c0.001-0.024 0.002-0.050 0.002-0.076-0.081-0.003-0.161-0.006-0.243-0.007-3.821-0.066-13.979 0.983-13.979 0.983v0.894s2.882 0.663 6.649 1.156c0.4-0.087 0.798-0.175 1.191-0.263 1.568-0.352 2.899-0.674 3.849-0.931 0.532-0.144 0.933-0.265 1.229-0.368 0.373-0.131 1.246-0.438 1.302-1.387z"></path>
<path fill="#ffcfc2" style="fill: var(--color42, #ffcfc2)" d="M1.91 30.671c0.424 0.771 2.142 1.877 7.398 1.016s14.598-2.932 14.62-3.307-0.862-1.088-2.010-1.088-1.325 0.334-1.988 0.334-1.502-1.041-2.208-0.897-1.126 1.579-1.126 1.579-6.692-0.442-10.247-0.221-4.925 1.701-4.439 2.584z"></path>
<path fill="#ffaea1" style="fill: var(--color40, #ffaea1)" d="M4.56 30.671c-0.486-0.883 0.883-2.363 4.439-2.584 0.369-0.023 0.772-0.039 1.197-0.049-1.388-0.025-2.764-0.019-3.848 0.049-3.556 0.221-4.925 1.701-4.439 2.584 0.365 0.664 1.692 1.578 5.416 1.266-1.757-0.193-2.506-0.793-2.766-1.266z"></path>
<path fill="#f4958c" style="fill: var(--color41, #f4958c)" d="M1.285 26.099s0-0.817 0-1.027 0.309-0.232 0.397 0 0.062 1.050 0.191 1.276v0.381z"></path>
<path fill="#f4958c" style="fill: var(--color41, #f4958c)" d="M30.715 26.099s0-0.817 0-1.027-0.309-0.232-0.398 0-0.062 1.050-0.191 1.276v0.381z"></path>
<path fill="#ffaea1" style="fill: var(--color40, #ffaea1)" d="M31.325 25.528c-0.050-0.141-0.265-0.083-0.431 0.099-0.116 0.127-0.555 0.529-0.84 0.786-0.139 0.125-0.349 0.128-0.492 0.007-0.2-0.169-0.17-0.485 0.058-0.613 0.324-0.182 0.704-0.43 0.778-0.627 0.133-0.356-0.191-0.398-0.364-0.273s-2.366 0.729-2.366 0.729l-3.637-4.903s-0.221-7.067-1.104-7.796c-0.883-0.729-5.468-1.502-5.468-1.502v-1.59h-2.915v1.59s-4.585 0.773-5.468 1.502-1.104 7.796-1.104 7.796l-3.637 4.903s-2.192-0.605-2.366-0.729-0.497-0.083-0.364 0.273c0.073 0.197 0.453 0.445 0.778 0.627 0.228 0.128 0.257 0.444 0.058 0.613-0.143 0.121-0.353 0.118-0.492-0.007-0.285-0.256-0.724-0.659-0.84-0.786-0.166-0.182-0.381-0.24-0.431-0.099s0.687 1.201 0.861 1.441 0.936 0.737 1.408 0.646 2.117-0.985 2.117-0.985 4.726-3.556 5.168-4.814 0.795-5.506 0.795-5.506h9.951s0.353 4.247 0.795 5.506 5.168 4.814 5.168 4.814 1.645 0.894 2.117 0.986 1.234-0.406 1.408-0.646c0.174-0.24 0.911-1.3 0.861-1.441z"></path>
<path fill="#f4958c" style="fill: var(--color41, #f4958c)" d="M14.542 11.435s2.231 0.177 2.451-1.59h-2.451z"></path>
<path fill="#8c4f5c" style="fill: var(--color43, #8c4f5c)" d="M18.791 4.792s0.155-1.154-0.401-1.798c-0.083-0.096-0.241-0.031-0.231 0.096l0.007 0.082s-0.319-0.622-1.14-0.866c-0.114-0.034-0.21 0.091-0.149 0.194l0.037 0.063s-0.495-0.495-2.134-0.529c-0.12-0.002-0.18 0.145-0.092 0.228l0.094 0.088c-0 0-0.617 0.109-1.435 0.604-0.101 0.061-0.076 0.214 0.039 0.241l0.067 0.015c-0.317 0.364-0.492 0.743-0.581 0.987-0.039 0.106 0.065 0.208 0.171 0.168s-0.251 1.166 0.053 2.172l2.904 0.656 2.904-0.656s0.176-0.845-0.113-1.744z"></path>
<path fill="#7b3c47" style="fill: var(--color44, #7b3c47)" d="M14.812 4.734c-0.856-0.183-1.464-0.519-1.769-0.37 0 0-0.251 1.166 0.053 2.172l1.793 0.405z"></path>
<path fill="#ffaea1" style="fill: var(--color40, #ffaea1)" d="M18.216 7.092s0.285-0.695 0.794-0.534c0.509 0.161-0.012 1.667-1.005 1.762z"></path>
<path fill="#f4958c" style="fill: var(--color41, #f4958c)" d="M13.784 7.092s-0.285-0.695-0.794-0.534c-0.509 0.161 0.012 1.667 1.005 1.762z"></path>
<path fill="#ffcfc2" style="fill: var(--color42, #ffcfc2)" d="M18.287 6.215c-0.029-0.071-0.053-0.172-0.075-0.29l-2.213-0.642-2.213 0.642c-0.022 0.117-0.046 0.219-0.075 0.29-0.131 0.319-0.295 0.384-0.317 0.391-0.002 0.050-0.003 0.1-0.003 0.151 0 1.92 1.167 4.171 2.607 4.171s2.607-2.251 2.607-4.171c0-0.051-0.001-0.101-0.003-0.151-0.022-0.007-0.186-0.072-0.317-0.391z"></path>
<path fill="#ffaea1" style="fill: var(--color40, #ffaea1)" d="M14.29 6.757c0-0.358 0.041-0.696 0.116-1.011l-0.619 0.179c-0.022 0.117-0.046 0.219-0.075 0.29-0.131 0.319-0.295 0.384-0.317 0.391-0.002 0.050-0.003 0.1-0.003 0.151 0 1.92 1.167 4.171 2.607 4.171 0.153 0 0.303-0.026 0.448-0.073-1.226-0.401-2.159-2.382-2.159-4.098z"></path>
<path fill="#fff" style="fill: var(--color6, #fff)" d="M16 4.931c-0.911 0-1.276-0.289-1.591-0.29h-0c-0.058-0-0.115 0.010-0.173 0.033-0.295 0.118-0.363 0.802-0.448 1.25h4.425c-0.085-0.449-0.153-1.132-0.448-1.25-0.058-0.023-0.115-0.033-0.173-0.033h-0c-0.315 0.001-0.68 0.29-1.591 0.29z"></path>
<path fill="#ebf0f3" style="fill: var(--color11, #ebf0f3)" d="M15.503 5.428c0-0.274 0.222-0.497 0.497-0.497-0.911 0-1.276-0.289-1.591-0.29h-0c-0.058-0-0.115 0.010-0.173 0.033-0.295 0.118-0.363 0.802-0.448 1.25h2.213c-0.274 0-0.497-0.222-0.497-0.497z"></path>
<path fill="#3e4a68" style="fill: var(--color45, #3e4a68)" d="M20.976 16.309l-0.771 2.636c-0.083 0.285-0.126 0.581-0.126 0.877v5.879h-8.158v-5.879c0-0.297-0.042-0.592-0.126-0.877l-0.771-2.636c0.404 0 0.731-0.327 0.731-0.731v-3.576c0.629-0.15 1.258-0.28 1.758-0.377v1.7c0 1.374 1.114 2.488 2.488 2.488s2.488-1.114 2.488-2.488v-1.7c0.5 0.098 1.128 0.227 1.758 0.377v3.576c0 0.404 0.327 0.731 0.731 0.731z"></path>
<path fill="#303a59" style="fill: var(--color46, #303a59)" d="M15.911 19.188c-2.339 0-3.047-0.345-3.472-0.93l-1.414-1.948 0.771 2.636c0.083 0.285 0.126 0.581 0.126 0.877v5.879h1.329v-5.669c0-0.173-0.023-0.344-0.066-0.509 1.976-0.050 2.727-0.336 2.727-0.336z"></path>
</symbol>
<symbol id="icon-travel-1" viewBox="0 0 32 32">
<path fill="#2b70a8" style="fill: var(--color47, #2b70a8)" d="M22.5 20c-0.001 5.798-4.701 10.498-10.499 10.498s-10.499-4.701-10.499-10.499 4.701-10.499 10.499-10.499c5.678 0 10.304 4.508 10.493 10.14l0 0.017c0.004 0.114 0.006 0.228 0.006 0.343z"></path>
<path fill="#89c592" style="fill: var(--color48, #89c592)" d="M8.5 18c0 2-1.5 1.5-2 3.5-0.443 1.771-0.101 3.543-3.492 3.924q-0.172-0.284-0.326-0.58c-0.745-1.406-1.182-3.073-1.182-4.842 0-2.404 0.807-4.619 2.165-6.39l-0.018 0.025q0.153-0.201 0.316-0.394c0.438 0.118 0.8 0.388 1.033 0.749l0.004 0.007c1 1.5 3.5 2 3.5 4z"></path>
<path fill="#89c592" style="fill: var(--color48, #89c592)" d="M22.5 20q0 0.315-0.019 0.626c-1.247 0.263-2.604 0.251-3.481-0.626-2-2-1.5-3.5-4.5-3s-2-1.5-3.5-2c-2.372-0.791-1-2.5-0.5-3.5 0.251-0.502 0.124-1.256-0.065-1.883 0.47-0.074 1.011-0.117 1.562-0.117 5.679 0 10.305 4.508 10.496 10.14l0 0.017c0.004 0.113 0.006 0.228 0.006 0.343z"></path>
<path fill="#89c592" style="fill: var(--color48, #89c592)" d="M10.577 20.463s2.153-2.13 4.423 0.037c1 1.5 2.43 0.29 3 2 0.5 1.5-1.003 4.337-3.423 4.963-2.077 0.537-2.577-0.963-2.577-2.963 0-1.581-3-2.5-1.423-4.037z"></path>
<path fill="#c2c5c6" style="fill: var(--color49, #c2c5c6)" d="M25.864 5.743l1.414 1.414 0.155-0.155c0.181-0.181 0.431-0.293 0.707-0.293 0.19 0 0.368 0.053 0.519 0.145l-0.004-0.003 1.098 0.659-4.243 4.243-0.659-1.098c-0.090-0.147-0.143-0.325-0.143-0.515 0-0.276 0.112-0.526 0.293-0.707l0.155-0.155-1.414-1.414-2.828 2.828-0.862-0.862c-0.181-0.181-0.293-0.431-0.293-0.707 0-0.19 0.053-0.368 0.145-0.519l-0.003 0.004 1.72-2.866-0.329-0.329c-0.583-0.583-0.615-1.536-0.042-2.128 0.273-0.282 0.655-0.457 1.078-0.457 0.414 0 0.789 0.168 1.061 0.439l0.354 0.354 2.866-1.72c0.147-0.089 0.324-0.143 0.514-0.143 0.276 0 0.526 0.112 0.707 0.293l0.862 0.862z"></path>
<path fill="#ce3536" style="fill: var(--color50, #ce3536)" d="M16.5 7c0 1.381-2.5 5-2.5 5s-2.5-3.619-2.5-5c0-1.381 1.119-2.5 2.5-2.5s2.5 1.119 2.5 2.5v0z"></path>
<path fill="#e74444" style="fill: var(--color51, #e74444)" d="M14 8c-0.552 0-1-0.448-1-1s0.448-1 1-1c0.552 0 1 0.448 1 1v0c-0.001 0.552-0.448 0.999-1 1h-0z"></path>
<path fill="#000" style="fill: var(--color7, #000)" d="M14.614 22.449c-0.092-0.129-0.24-0.212-0.409-0.212-0.276 0-0.5 0.224-0.5 0.5 0 0.11 0.036 0.212 0.096 0.295l-0.001-0.001c0.272 0.377 0.547 0.709 0.843 1.020l-0.004-0.004c0.092 0.099 0.222 0.16 0.367 0.16 0.276 0 0.5-0.224 0.5-0.5 0-0.136-0.054-0.259-0.142-0.349l0 0c-0.261-0.275-0.508-0.572-0.734-0.885l-0.017-0.025z"></path>
<path fill="#000" style="fill: var(--color7, #000)" d="M30.509 17.794c-0.013-0.001-0.028-0.002-0.043-0.002-0.261 0-0.475 0.2-0.498 0.454l-0 0.002c-0.008 0.097-0.019 0.195-0.030 0.292-0.042 0.344-0.096 0.641-0.164 0.932l0.012-0.058c-0.008 0.033-0.013 0.072-0.013 0.111 0 0.276 0.224 0.5 0.5 0.5 0.237 0 0.435-0.164 0.487-0.385l0.001-0.003c0.063-0.26 0.123-0.591 0.165-0.928l0.005-0.047c0.013-0.108 0.025-0.217 0.034-0.326 0.001-0.013 0.002-0.028 0.002-0.044 0-0.261-0.2-0.475-0.455-0.498l-0.002-0z"></path>
<path fill="#000" style="fill: var(--color7, #000)" d="M21.213 26.003c1.119-1.694 1.785-3.773 1.785-6.006 0-4.642-2.876-8.613-6.943-10.228l-0.074-0.026c0.544-1.001 1.020-2.067 1.020-2.742 0-1.657-1.343-3-3-3s-3 1.343-3 3v0c0 0.511 0.272 1.245 0.64 2.006-5.899 0.191-10.64 5.049-10.64 10.994 0 6.065 4.935 11 11 11 0 0 0.001 0 0.001 0 3.43 0 6.492-1.572 8.506-4.035l0.016-0.020c0.186 0.020 0.372 0.035 0.557 0.044 0.008 0 0.016 0 0.024 0 0.275-0.001 0.498-0.225 0.498-0.5 0-0.237-0.165-0.435-0.386-0.487l-0.003-0.001zM14 5c1.104 0.001 1.999 0.896 2 2v0c0 0.769-1.099 2.714-2 4.101-0.901-1.387-2-3.332-2-4.101 0.001-1.104 0.896-1.999 2-2h0zM13.589 12.284c0.091 0.131 0.242 0.216 0.411 0.216s0.32-0.085 0.41-0.214l0.001-0.002c0.109-0.158 0.566-0.826 1.066-1.662 3.841 1.455 6.523 5.104 6.523 9.378v0c0 0.069-0.001 0.137-0.003 0.206-1.195 0.188-2.084 0.001-2.644-0.559-0.584-0.584-0.941-1.121-1.255-1.594-0.376-0.567-0.701-1.056-1.259-1.358-0.579-0.313-1.326-0.371-2.422-0.188-1.491 0.248-1.688-0.139-1.984-0.725-0.226-0.445-0.507-1-1.275-1.256-0.535-0.178-0.859-0.407-0.964-0.679-0.175-0.453 0.209-1.137 0.517-1.687 0.086-0.153 0.167-0.298 0.236-0.436 0.211-0.422 0.248-0.986 0.11-1.679 0.31-0.029 0.625-0.045 0.943-0.045 0.054 0 0.109 0.001 0.163 0.002 0.623 1.11 1.29 2.087 1.425 2.282zM4.125 13.844c0.188 0.107 0.342 0.253 0.456 0.428l0.003 0.005c0.439 0.658 1.095 1.12 1.73 1.568 0.904 0.637 1.686 1.188 1.686 2.155 0 0.828-0.269 1.057-0.715 1.436-0.444 0.377-0.996 0.846-1.27 1.942-0.077 0.309-0.131 0.611-0.183 0.904-0.241 1.36-0.405 2.28-2.555 2.602-0.803-1.406-1.277-3.090-1.277-4.884 0-2.332 0.8-4.478 2.141-6.177l-0.016 0.021zM12 30c-3.348-0.001-6.312-1.647-8.125-4.175l-0.020-0.030c2.464-0.527 2.728-2.013 2.962-3.338 0.049-0.276 0.099-0.56 0.168-0.835 0.196-0.785 0.544-1.080 0.947-1.423 0.5-0.425 1.068-0.907 1.068-2.198 0-1.486-1.121-2.276-2.11-2.973-0.586-0.412-1.139-0.802-1.474-1.305-0.169-0.255-0.377-0.469-0.619-0.638l-0.008-0.005c1.382-1.441 3.186-2.467 5.213-2.88l0.064-0.011c0.101 0.48 0.098 0.866-0.013 1.088-0.059 0.117-0.134 0.252-0.214 0.395-0.389 0.694-0.922 1.645-0.577 2.536 0.218 0.564 0.75 0.99 1.581 1.267 0.361 0.12 0.495 0.355 0.7 0.759 0.294 0.581 0.68 1.343 2.129 1.342 0.324-0.003 0.639-0.033 0.946-0.088l-0.034 0.005c1.751-0.292 2.005 0.091 2.684 1.113 0.323 0.487 0.726 1.093 1.381 1.748 0.615 0.615 1.455 0.924 2.507 0.924 0.273-0.001 0.541-0.020 0.803-0.055l-0.032 0.003c-0.223 1.767-0.879 3.349-1.858 4.678l0.019-0.027c-0.044-0.007-0.087-0.014-0.131-0.022-0.028-0.005-0.059-0.009-0.092-0.009-0.276 0-0.499 0.224-0.499 0.499 0 0.114 0.038 0.218 0.102 0.302l-0.001-0.001c-1.836 2.061-4.498 3.353-7.461 3.353-0.001 0-0.002 0-0.003 0h0z"></path>
<path fill="#000" style="fill: var(--color7, #000)" d="M29.757 21.132c-0.066-0.034-0.144-0.054-0.226-0.054-0.194 0-0.362 0.11-0.445 0.271l-0.001 0.003c-0.2 0.392-0.401 0.724-0.623 1.039l0.018-0.027c-0.058 0.080-0.092 0.181-0.092 0.289 0 0.276 0.224 0.5 0.5 0.5 0.171 0 0.321-0.085 0.411-0.216l0.001-0.002c0.228-0.323 0.453-0.693 0.653-1.079l0.025-0.053c0.034-0.066 0.054-0.144 0.054-0.226 0-0.194-0.11-0.362-0.271-0.445l-0.003-0.001z"></path>
<path fill="#000" style="fill: var(--color7, #000)" d="M27.104 23.899c-0.28 0.246-0.586 0.48-0.908 0.694l-0.032 0.020c-0.137 0.091-0.227 0.244-0.227 0.419 0 0.276 0.224 0.5 0.5 0.5 0.102 0 0.198-0.031 0.277-0.084l-0.002 0.001c0.395-0.261 0.737-0.523 1.060-0.806l-0.011 0.009c0.105-0.092 0.172-0.227 0.172-0.377 0-0.276-0.224-0.5-0.5-0.5-0.127 0-0.242 0.047-0.33 0.125l0.001-0z"></path>
<path fill="#000" style="fill: var(--color7, #000)" d="M29.224 13.401c0.276-0 0.5-0.224 0.5-0.5 0-0.095-0.026-0.184-0.072-0.259l0.001 0.002c-0.248-0.412-0.497-0.764-0.768-1.099l0.014 0.018c-0.092-0.114-0.232-0.186-0.389-0.186-0.276 0-0.5 0.224-0.5 0.5 0 0.119 0.042 0.229 0.111 0.315l-0.001-0.001c0.23 0.283 0.453 0.599 0.654 0.93l0.021 0.038c0.089 0.147 0.248 0.243 0.429 0.243 0 0 0 0 0.001 0h-0z"></path>
<path fill="#000" style="fill: var(--color7, #000)" d="M29.964 14.417c-0.207 0.065-0.354 0.254-0.354 0.478 0 0.052 0.008 0.102 0.023 0.15l-0.001-0.004c0.102 0.316 0.194 0.703 0.258 1.1l0.007 0.049c0.039 0.24 0.245 0.422 0.493 0.422h0c0.028-0 0.055-0.002 0.081-0.007l-0.003 0c0.241-0.039 0.422-0.245 0.422-0.494 0-0.027-0.002-0.055-0.006-0.081l0 0.003c-0.080-0.498-0.183-0.931-0.314-1.352l0.018 0.067c-0.065-0.207-0.254-0.354-0.478-0.354-0.052 0-0.102 0.008-0.15 0.023l0.004-0.001z"></path>
<path fill="#000" style="fill: var(--color7, #000)" d="M24.317 25.525c-0.31 0.114-0.691 0.221-1.081 0.302l-0.055 0.009c-0.231 0.047-0.403 0.249-0.403 0.491 0 0.276 0.224 0.5 0.5 0.5 0.035 0 0.070-0.004 0.103-0.011l-0.003 0.001c0.498-0.101 0.924-0.221 1.337-0.369l-0.066 0.021c0.196-0.070 0.334-0.255 0.334-0.472 0-0.276-0.224-0.5-0.5-0.5-0.059 0-0.116 0.010-0.169 0.029l0.003-0.001z"></path>
<path fill="#000" style="fill: var(--color7, #000)" d="M18.474 22.342c-0.393-1.18-1.211-1.323-1.808-1.428-0.499-0.087-0.893-0.156-1.25-0.692-0.021-0.032-0.045-0.059-0.071-0.084l-0-0c-1.35-1.288-2.681-1.225-3.56-0.946-0.605 0.201-1.125 0.514-1.561 0.916l0.003-0.003c-0.563 0.549-0.737 1.138-0.518 1.752 0.17 0.476 0.555 0.883 0.928 1.277 0.424 0.448 0.863 0.912 0.863 1.365 0 1.622 0.324 2.628 1.020 3.167 0.349 0.27 0.777 0.406 1.279 0.406 0.323-0.004 0.633-0.049 0.928-0.131l-0.025 0.006c1.040-0.269 2.018-0.942 2.746-1.864 0.043 0.020 0.085 0.041 0.127 0.061 0.058 0.026 0.126 0.041 0.198 0.041 0.276 0 0.5-0.224 0.5-0.5 0-0.192-0.108-0.359-0.268-0.443l-0.003-0.001c0.566-1.044 0.738-2.1 0.472-2.899zM14.451 26.979c-0.59 0.153-1.034 0.118-1.32-0.103-0.419-0.325-0.632-1.124-0.632-2.376 0-0.852-0.604-1.49-1.137-2.053-0.819-0.865-0.958-1.119-0.438-1.626l0.003-0.003c0.048-0.048 0.816-0.79 1.873-0.79 0.548 0 1.173 0.199 1.816 0.798 0.589 0.847 1.331 0.977 1.876 1.073 0.551 0.096 0.827 0.145 1.032 0.759 0.174 0.523 0.019 1.331-0.404 2.11-0.001 0.001-0.001 0.003-0.002 0.004-0.055-0.033-0.111-0.067-0.165-0.101-0.076-0.049-0.169-0.079-0.269-0.079-0.276 0-0.5 0.224-0.5 0.5 0 0.176 0.091 0.331 0.229 0.42l0.002 0.001c0.045 0.029 0.091 0.056 0.137 0.084-0.578 0.683-1.32 1.179-2.101 1.381z"></path>
<path fill="#000" style="fill: var(--color7, #000)" d="M30.249 7.449c-0.020-0.157-0.11-0.289-0.237-0.366l-0.002-0.001-1.098-0.659c-0.22-0.135-0.487-0.214-0.772-0.214-0.315 0-0.607 0.097-0.848 0.263l0.005-0.003-0.726-0.726 2.475-2.475c0.090-0.090 0.146-0.215 0.146-0.354s-0.056-0.263-0.146-0.354l-0.862-0.862c-0.271-0.272-0.646-0.44-1.060-0.44-0.285 0-0.552 0.080-0.779 0.218l0.007-0.004-2.531 1.519-0.078-0.078c-0.362-0.362-0.862-0.586-1.414-0.586-0.564 0-1.073 0.233-1.437 0.609l-0 0.001c-0.755 0.779-0.734 2.049 0.047 2.829l0.053 0.053-1.519 2.531c-0.135 0.22-0.214 0.487-0.214 0.772 0 0.414 0.168 0.789 0.44 1.060l0.862 0.862c0.090 0.090 0.215 0.146 0.354 0.146s0.263-0.056 0.354-0.146l2.475-2.475 0.726 0.726c-0.163 0.236-0.26 0.528-0.26 0.843 0 0.285 0.080 0.552 0.218 0.779l-0.004-0.007 0.659 1.098c0.089 0.146 0.248 0.243 0.429 0.243 0.138 0 0.263-0.056 0.354-0.146l4.243-4.243c0.090-0.090 0.146-0.215 0.146-0.353 0-0.022-0.001-0.043-0.004-0.064l0 0.002zM25.61 10.947l-0.329-0.549c-0.045-0.073-0.072-0.162-0.072-0.257 0-0.138 0.056-0.263 0.146-0.353v0l0.155-0.155c0.090-0.090 0.146-0.215 0.146-0.354s-0.056-0.263-0.146-0.354l-1.414-1.414c-0.090-0.090-0.215-0.146-0.354-0.146s-0.263 0.056-0.354 0.146l-2.475 2.475-0.509-0.509c-0.090-0.090-0.146-0.215-0.146-0.353 0-0.095 0.027-0.184 0.073-0.26l-0.001 0.002 1.72-2.866c0.045-0.073 0.071-0.162 0.071-0.257 0-0.138-0.056-0.263-0.146-0.353l-0.329-0.329c-0.397-0.397-0.413-1.037-0.036-1.427 0.182-0.188 0.437-0.305 0.719-0.305 0.276 0 0.526 0.112 0.707 0.293l0.354 0.354c0.090 0.090 0.215 0.146 0.353 0.146 0.095 0 0.184-0.027 0.26-0.073l-0.002 0.001 2.866-1.72c0.073-0.045 0.162-0.071 0.257-0.071 0.138 0 0.263 0.056 0.353 0.146v0l0.509 0.509-2.475 2.475c-0.090 0.090-0.146 0.215-0.146 0.354s0.056 0.263 0.146 0.354l1.414 1.414c0.090 0.090 0.215 0.146 0.354 0.146s0.263-0.056 0.354-0.146l0.155-0.155c0.090-0.090 0.215-0.146 0.353-0.146 0.095 0 0.184 0.027 0.26 0.073l-0.002-0.001 0.549 0.33z"></path>
<path fill="#000" style="fill: var(--color7, #000)" d="M15 7c0 0.552-0.448 1-1 1s-1-0.448-1-1c0-0.552 0.448-1 1-1s1 0.448 1 1z"></path>
</symbol>
<symbol id="icon-travel" viewBox="0 0 32 32">
<path d="M15.365 23.359c0.088 0.090 0.142 0.213 0.142 0.349 0 0.276-0.224 0.5-0.5 0.5-0.145 0-0.275-0.062-0.367-0.16l-0-0c-0.292-0.308-0.567-0.639-0.82-0.988l-0.019-0.028c-0.060-0.081-0.095-0.183-0.095-0.294 0-0.276 0.224-0.5 0.5-0.5 0.168 0 0.317 0.083 0.408 0.21l0.001 0.002c0.243 0.338 0.49 0.635 0.755 0.914l-0.004-0.004zM30.509 17.794c-0.013-0.001-0.028-0.002-0.043-0.002-0.261 0-0.475 0.2-0.498 0.454l-0 0.002c-0.008 0.097-0.019 0.195-0.030 0.292-0.042 0.344-0.096 0.641-0.164 0.932l0.012-0.058c-0.008 0.033-0.013 0.072-0.013 0.111 0 0.276 0.224 0.5 0.5 0.5 0.237 0 0.435-0.164 0.487-0.385l0.001-0.003c0.063-0.26 0.123-0.591 0.165-0.928l0.005-0.047c0.013-0.108 0.025-0.217 0.034-0.326 0.001-0.013 0.002-0.028 0.002-0.044 0-0.261-0.2-0.475-0.454-0.498l-0.002-0zM21.604 26.514c-0.013 0.266-0.231 0.476-0.499 0.477h-0c-0.008 0-0.016 0-0.024-0-0.185-0.009-0.372-0.025-0.557-0.044-2.030 2.482-5.092 4.055-8.522 4.055-0 0-0.001 0-0.001 0h0c-6.065 0-11-4.935-11-11 0-5.945 4.741-10.803 10.64-10.994-0.368-0.761-0.64-1.495-0.64-2.006 0-1.657 1.343-3 3-3s3 1.343 3 3v0c0 0.675-0.475 1.741-1.020 2.742 4.143 1.639 7.020 5.61 7.020 10.252 0 2.235-0.667 4.314-1.812 6.050l0.026-0.041c0.225 0.052 0.391 0.25 0.391 0.488 0 0.008-0 0.016-0.001 0.024l0-0.001zM12 7c0 0.769 1.099 2.714 2 4.101 0.901-1.387 2-3.332 2-4.101 0-1.105-0.895-2-2-2s-2 0.895-2 2v0zM12.163 10.002c-0.054-0.001-0.109-0.002-0.163-0.002-0.318 0-0.632 0.016-0.943 0.045 0.137 0.693 0.101 1.257-0.11 1.679-0.069 0.138-0.15 0.283-0.236 0.436-0.308 0.55-0.692 1.234-0.517 1.687 0.105 0.272 0.43 0.501 0.964 0.679 0.768 0.256 1.049 0.81 1.275 1.256 0.297 0.586 0.494 0.974 1.984 0.725 1.095-0.183 1.842-0.124 2.422 0.188 0.558 0.301 0.883 0.791 1.259 1.358 0.314 0.473 0.67 1.009 1.255 1.594 0.56 0.56 1.449 0.747 2.644 0.559 0.001-0.068 0.003-0.137 0.003-0.206 0-0 0-0 0-0 0-4.275-2.681-7.923-6.454-9.356l-0.069-0.023c-0.5 0.836-0.957 1.505-1.066 1.662-0.091 0.131-0.242 0.216-0.411 0.216s-0.32-0.085-0.41-0.214l-0.001-0.002c-0.135-0.195-0.802-1.172-1.425-2.282zM2 20c0 0.003 0 0.007 0 0.011 0 1.791 0.474 3.471 1.303 4.922l-0.026-0.049c2.15-0.322 2.314-1.242 2.555-2.602 0.052-0.292 0.105-0.595 0.183-0.904 0.274-1.096 0.826-1.565 1.27-1.942 0.446-0.379 0.715-0.608 0.715-1.436 0-0.967-0.781-1.518-1.686-2.155-0.635-0.447-1.292-0.91-1.73-1.568-0.117-0.18-0.271-0.326-0.453-0.43l-0.006-0.003c-1.325 1.675-2.125 3.817-2.125 6.146 0 0.003 0 0.007 0 0.010v-0.001zM19.465 26.647c-0.063-0.083-0.101-0.187-0.101-0.301 0-0.276 0.224-0.499 0.499-0.499 0.033 0 0.064 0.003 0.095 0.009l-0.003-0c0.043 0.008 0.087 0.015 0.131 0.022 0.96-1.302 1.616-2.883 1.834-4.601l0.005-0.049c-0.231 0.032-0.498 0.050-0.77 0.051h-0.001c-1.052 0-1.892-0.309-2.507-0.924-0.655-0.655-1.057-1.261-1.381-1.748-0.679-1.022-0.933-1.405-2.684-1.113-0.273 0.050-0.588 0.080-0.909 0.083l-0.003 0c-1.448 0-1.834-0.762-2.129-1.342-0.205-0.404-0.339-0.639-0.7-0.759-0.831-0.277-1.363-0.703-1.581-1.267-0.345-0.892 0.188-1.842 0.577-2.536 0.080-0.143 0.155-0.277 0.214-0.395 0.111-0.222 0.114-0.608 0.013-1.088-2.091 0.424-3.895 1.45-5.274 2.887l-0.003 0.004c0.249 0.175 0.458 0.388 0.621 0.635l0.005 0.009c0.335 0.503 0.888 0.893 1.474 1.305 0.989 0.697 2.11 1.487 2.11 2.973 0 1.291-0.567 1.773-1.068 2.198-0.403 0.343-0.751 0.639-0.947 1.423-0.069 0.275-0.119 0.56-0.168 0.835-0.235 1.325-0.498 2.811-2.962 3.338 1.833 2.558 4.796 4.205 8.144 4.205 2.965 0 5.628-1.292 7.457-3.344l0.009-0.010zM29.757 21.132c-0.066-0.034-0.144-0.054-0.226-0.054-0.194 0-0.362 0.11-0.445 0.271l-0.001 0.003c-0.2 0.392-0.401 0.724-0.623 1.039l0.018-0.027c-0.058 0.080-0.092 0.181-0.092 0.289 0 0.276 0.224 0.5 0.5 0.5 0.171 0 0.321-0.085 0.411-0.216l0.001-0.002c0.228-0.323 0.453-0.693 0.653-1.079l0.025-0.053c0.034-0.066 0.054-0.144 0.054-0.226 0-0.194-0.11-0.362-0.271-0.445l-0.003-0.001zM27.104 23.899c-0.28 0.246-0.586 0.48-0.908 0.694l-0.032 0.020c-0.137 0.091-0.227 0.244-0.227 0.419 0 0.276 0.224 0.5 0.5 0.5 0.102 0 0.198-0.031 0.277-0.084l-0.002 0.001c0.395-0.261 0.737-0.523 1.060-0.806l-0.011 0.009c0.105-0.092 0.172-0.227 0.172-0.377 0-0.276-0.224-0.5-0.5-0.5-0.127 0-0.242 0.047-0.33 0.125l0.001-0zM29.224 13.401c0.276-0 0.5-0.224 0.5-0.5 0-0.095-0.026-0.184-0.072-0.259l0.001 0.002c-0.248-0.412-0.497-0.764-0.768-1.099l0.014 0.018c-0.092-0.114-0.232-0.186-0.389-0.186-0.276 0-0.5 0.224-0.5 0.5 0 0.119 0.042 0.229 0.111 0.315l-0.001-0.001c0.23 0.283 0.453 0.599 0.654 0.93l0.021 0.038c0.089 0.147 0.248 0.243 0.429 0.243 0 0 0 0 0.001 0h-0zM29.964 14.417c-0.207 0.065-0.354 0.254-0.354 0.478 0 0.052 0.008 0.102 0.023 0.15l-0.001-0.004c0.102 0.316 0.194 0.703 0.258 1.1l0.007 0.049c0.039 0.24 0.245 0.422 0.493 0.422h0c0.028-0 0.055-0.002 0.081-0.007l-0.003 0c0.241-0.039 0.422-0.245 0.422-0.494 0-0.027-0.002-0.055-0.006-0.081l0 0.003c-0.080-0.498-0.183-0.931-0.314-1.352l0.018 0.067c-0.065-0.207-0.254-0.354-0.478-0.354-0.052 0-0.102 0.008-0.15 0.023l0.004-0.001zM24.317 25.525c-0.31 0.114-0.691 0.221-1.081 0.302l-0.055 0.009c-0.231 0.047-0.403 0.249-0.403 0.491 0 0.276 0.224 0.5 0.5 0.5 0.035 0 0.070-0.004 0.103-0.011l-0.003 0.001c0.498-0.101 0.924-0.221 1.337-0.369l-0.066 0.021c0.196-0.070 0.334-0.255 0.334-0.472 0-0.276-0.224-0.5-0.5-0.5-0.059 0-0.116 0.010-0.169 0.029l0.003-0.001zM18.003 25.241c0.162 0.085 0.27 0.252 0.27 0.444 0 0.276-0.224 0.5-0.5 0.5-0.072 0-0.14-0.015-0.201-0.042l0.003 0.001c-0.043-0.020-0.085-0.041-0.127-0.061-0.728 0.922-1.706 1.595-2.746 1.864-0.27 0.076-0.58 0.121-0.901 0.125l-0.002 0c-0.502 0-0.93-0.135-1.279-0.406-0.696-0.538-1.020-1.544-1.020-3.166 0-0.453-0.439-0.917-0.863-1.365-0.373-0.394-0.758-0.801-0.928-1.277-0.219-0.614-0.044-1.203 0.518-1.752 0.433-0.4 0.953-0.712 1.528-0.904l0.030-0.009c0.879-0.28 2.21-0.343 3.56 0.946 0.026 0.025 0.050 0.053 0.070 0.083l0.001 0.002c0.357 0.535 0.751 0.604 1.25 0.692 0.597 0.105 1.415 0.248 1.808 1.428 0.267 0.799 0.095 1.856-0.471 2.899zM16.553 25.598c-0.046-0.028-0.092-0.055-0.137-0.084-0.14-0.090-0.231-0.245-0.231-0.421 0-0.276 0.224-0.5 0.5-0.5 0.1 0 0.193 0.029 0.271 0.080l-0.002-0.001c0.054 0.035 0.11 0.068 0.165 0.101 0.001-0.001 0.002-0.003 0.002-0.004 0.424-0.779 0.578-1.587 0.404-2.11-0.205-0.614-0.481-0.663-1.032-0.759-0.545-0.095-1.287-0.225-1.876-1.073-0.643-0.598-1.268-0.798-1.816-0.798-1.057 0-1.825 0.742-1.873 0.79l-0.003 0.003c-0.52 0.507-0.382 0.761 0.438 1.626 0.533 0.563 1.137 1.201 1.137 2.053 0 1.252 0.213 2.051 0.632 2.376 0.285 0.221 0.729 0.256 1.32 0.103 0.781-0.202 1.523-0.698 2.101-1.381zM30.107 7.864l-4.243 4.243c-0.090 0.090-0.215 0.146-0.354 0.146-0.181 0-0.34-0.096-0.427-0.241l-0.001-0.002-0.659-1.098c-0.135-0.22-0.214-0.487-0.214-0.772 0-0.315 0.097-0.607 0.263-0.848l-0.003 0.005-0.726-0.726-2.475 2.475c-0.090 0.090-0.215 0.146-0.354 0.146s-0.263-0.056-0.354-0.146l-0.862-0.862c-0.272-0.271-0.44-0.646-0.44-1.060 0-0.285 0.080-0.552 0.218-0.779l-0.004 0.007 1.519-2.531-0.053-0.053c-0.781-0.781-0.802-2.050-0.047-2.829 0.364-0.376 0.873-0.609 1.437-0.609 0.552 0 1.052 0.224 1.414 0.586l0.078 0.078 2.531-1.519c0.22-0.135 0.487-0.214 0.772-0.214 0.414 0 0.789 0.168 1.060 0.44l0.862 0.862c0.090 0.090 0.146 0.215 0.146 0.354s-0.056 0.263-0.146 0.354l-2.475 2.475 0.726 0.726c0.236-0.163 0.528-0.26 0.843-0.26 0.285 0 0.552 0.080 0.779 0.218l-0.007-0.004 1.098 0.659c0.146 0.089 0.243 0.248 0.243 0.429 0 0.138-0.056 0.263-0.146 0.354v0zM28.947 7.61l-0.549-0.33c-0.073-0.045-0.162-0.072-0.257-0.072-0.138 0-0.263 0.056-0.353 0.146v0l-0.155 0.155c-0.090 0.090-0.215 0.146-0.354 0.146s-0.263-0.056-0.354-0.146l-1.414-1.414c-0.090-0.090-0.146-0.215-0.146-0.354s0.056-0.263 0.146-0.354l2.475-2.475-0.509-0.509c-0.090-0.090-0.215-0.146-0.353-0.146-0.095 0-0.184 0.027-0.26 0.073l0.002-0.001-2.866 1.719c-0.073 0.045-0.162 0.071-0.257 0.071-0.138 0-0.263-0.056-0.353-0.146l-0.354-0.354c-0.181-0.181-0.431-0.293-0.707-0.293-0.282 0-0.537 0.117-0.718 0.304l-0 0c-0.377 0.39-0.361 1.030 0.036 1.427l0.329 0.329c0.090 0.090 0.146 0.215 0.146 0.353 0 0.095-0.027 0.184-0.073 0.26l0.001-0.002-1.72 2.866c-0.045 0.073-0.072 0.162-0.072 0.257 0 0.138 0.056 0.263 0.146 0.353v0l0.509 0.509 2.475-2.475c0.090-0.090 0.215-0.146 0.354-0.146s0.263 0.056 0.354 0.146l1.414 1.414c0.090 0.090 0.146 0.215 0.146 0.354s-0.056 0.263-0.146 0.354l-0.155 0.155c-0.091 0.090-0.147 0.215-0.147 0.353 0 0.095 0.027 0.184 0.073 0.26l-0.001-0.002 0.329 0.549zM15 7c0-0.552-0.448-1-1-1s-1 0.448-1 1c0 0.552 0.448 1 1 1v0c0.552-0.001 0.999-0.448 1-1v-0z"></path>
</symbol>
</defs>
</svg>
